<?xml version="1.0" encoding="utf-8"?>
<!-- Generator: Adobe Illustrator 16.0.0, SVG Export Plug-In . SVG Version: 6.00 Build 0)  -->
<!DOCTYPE svg PUBLIC "-//W3C//DTD SVG 1.1//EN" "http://www.w3.org/Graphics/SVG/1.1/DTD/svg11.dtd">
<svg version="1.1" id="Layer_1" xmlns="http://www.w3.org/2000/svg" xmlns:xlink="http://www.w3.org/1999/xlink" x="0px" y="0px"
	 width="183.375px" height="78.375px" viewBox="0 0 183.375 78.375" enable-background="new 0 0 183.375 78.375"
	 xml:space="preserve">
<image display="none" overflow="visible" width="48" height="20" xlink:href="EB850651.jpg"  transform="matrix(3.7534 0 0 3.7534 2.3809 1.3403)">
</image>
<path fill="#074D54" d="M182.542,68.97c0,4.108-3.329,7.438-7.438,7.438H8.79c-4.108,0-7.438-3.329-7.438-7.438V8.814
	c0-4.107,3.33-7.438,7.438-7.438h166.315c4.108,0,7.438,3.33,7.438,7.438V68.97z"/>
<path fill="#59B247" d="M76.658,68.938c0,4.125-2.202,7.469-4.918,7.469H5.96c-2.716,0-4.918-3.344-4.918-7.469V8.845
	c0-4.125,2.202-7.468,4.918-7.468h65.78c2.716,0,4.918,3.344,4.918,7.468V68.938z"/>
<g>
	<path fill="#FFFFFF" d="M103.233,63.207h-14.31c-2.066,0-3.541-0.463-4.424-1.389c-0.884-0.927-1.325-2.401-1.325-4.424v-35.2
		c0-2.065,0.452-3.551,1.357-4.456c0.905-0.905,2.369-1.357,4.392-1.357h15.172c2.235,0,4.173,0.139,5.813,0.415
		c1.64,0.277,3.109,0.81,4.408,1.597c1.106,0.66,2.087,1.496,2.939,2.507c0.851,1.012,1.501,2.13,1.948,3.354
		c0.447,1.225,0.671,2.519,0.671,3.881c0,4.685-2.344,8.113-7.027,10.285c6.153,1.96,9.23,5.771,9.23,11.436
		c0,2.619-0.671,4.978-2.012,7.074c-1.342,2.098-3.151,3.647-5.431,4.647c-1.427,0.597-3.066,1.018-4.918,1.263
		C107.864,63.085,105.702,63.207,103.233,63.207z M92.66,23.504V35.61h8.688c2.364,0,4.19-0.224,5.479-0.67
		c1.288-0.447,2.273-1.299,2.955-2.556c0.531-0.894,0.798-1.895,0.798-3.002c0-2.364-0.841-3.934-2.522-4.711
		c-1.683-0.777-4.249-1.166-7.698-1.166H92.66z M102.53,42.414h-9.87v13.671h10.189c6.409,0,9.614-2.311,9.614-6.932
		c0-2.363-0.83-4.077-2.491-5.143C108.312,42.946,105.83,42.414,102.53,42.414z"/>
	<path fill="#FFFFFF" d="M146.099,56.148l-7.506-29.833V58.64c0,1.789-0.399,3.13-1.198,4.024s-1.857,1.343-3.178,1.343
		c-1.278,0-2.321-0.443-3.13-1.326c-0.811-0.884-1.215-2.23-1.215-4.041V21.588c0-2.044,0.532-3.423,1.598-4.137
		c1.064-0.713,2.502-1.07,4.313-1.07h2.938c1.767,0,3.05,0.16,3.849,0.479s1.39,0.894,1.773,1.725
		c0.383,0.831,0.818,2.183,1.31,4.057l6.803,25.649l6.803-25.649c0.49-1.874,0.927-3.226,1.311-4.057
		c0.384-0.831,0.975-1.405,1.772-1.725c0.799-0.319,2.082-0.479,3.849-0.479h2.939c1.81,0,3.247,0.357,4.312,1.07
		c1.064,0.714,1.598,2.092,1.598,4.137V58.64c0,1.789-0.399,3.13-1.198,4.024c-0.798,0.895-1.868,1.343-3.21,1.343
		c-1.257,0-2.289-0.448-3.099-1.343c-0.809-0.895-1.213-2.235-1.213-4.024V26.315l-7.506,29.833
		c-0.491,1.938-0.891,3.359-1.199,4.265s-0.878,1.73-1.708,2.476c-0.831,0.744-1.98,1.118-3.45,1.118
		c-1.107,0-2.044-0.24-2.811-0.72s-1.363-1.091-1.789-1.836s-0.762-1.57-1.006-2.476C146.604,58.07,146.354,57.128,146.099,56.148z"
		/>
</g>
<g display="none">
	<g display="inline">
		<g>
			<path fill="#FFFFFF" d="M10.711,19.689c0.568,0,1.141-0.192,1.611-0.584l6.839-5.703c1.068-0.891,1.212-2.479,0.321-3.547
				c-0.891-1.068-2.479-1.212-3.547-0.321l-6.839,5.703c-1.068,0.891-1.212,2.479-0.321,3.547
				C9.273,19.38,9.989,19.689,10.711,19.689z"/>
			<path fill="#FFFFFF" d="M53.374,13.401l6.839,5.703c0.471,0.393,1.042,0.584,1.612,0.584c0.721,0,1.438-0.308,1.936-0.905
				c0.891-1.069,0.748-2.657-0.322-3.548L56.6,9.533c-1.068-0.891-2.657-0.747-3.547,0.321
				C52.162,10.922,52.306,12.51,53.374,13.401z"/>
			<path fill="#FFFFFF" d="M57.283,20.989c-5.045-5.045-11.586-8.052-18.623-8.609V9.766c0-1.391-1.127-2.519-2.519-2.519
				c-1.391,0-2.519,1.127-2.519,2.519v2.636c-6.94,0.608-13.385,3.602-18.371,8.587c-5.613,5.613-8.705,13.076-8.705,21.016
				c0,7.938,3.092,15.401,8.705,21.014c0.521,0.521,1.058,1.02,1.609,1.496l-2.025,3.402c-0.711,1.195-0.319,2.741,0.875,3.452
				c0.404,0.241,0.848,0.355,1.286,0.355c0.859,0,1.696-0.439,2.167-1.23l1.789-3.006c4.577,2.761,9.832,4.235,15.314,4.235
				c5.46,0,10.701-1.458,15.311-4.24l1.792,3.011c0.471,0.791,1.308,1.23,2.166,1.23c0.438,0,0.882-0.114,1.287-0.355
				c1.195-0.711,1.586-2.257,0.875-3.452l-3.148-5.288c-0.363-0.611-0.968-1.04-1.665-1.181c-0.696-0.141-1.421,0.019-1.993,0.44
				c-4.259,3.139-9.317,4.798-14.625,4.798c-13.61,0-24.683-11.072-24.683-24.682c0-13.611,11.073-24.683,24.683-24.683
				S60.95,28.394,60.95,42.005c0,4.156-1.052,8.266-3.042,11.881c-0.671,1.22-0.227,2.751,0.992,3.422
				c1.219,0.67,2.75,0.227,3.421-0.992c2.399-4.358,3.667-9.307,3.667-14.311C65.987,34.065,62.896,26.602,57.283,20.989z"/>
			<path fill="#FFFFFF" d="M36.142,23.492c-1.391,0-2.519,1.127-2.519,2.519v15.994c0,0.667,0.265,1.309,0.738,1.78l7.124,7.124
				c0.492,0.491,1.136,0.737,1.781,0.737c0.645,0,1.289-0.246,1.782-0.737c0.983-0.984,0.983-2.578,0-3.563L38.66,40.96V26.011
				C38.66,24.62,37.533,23.492,36.142,23.492z"/>
		</g>
	</g>
</g>
<g>
	<g>
		<path fill="#FDFDFE" d="M41.933,44.647h6.613c1.52,0,2.751-1.231,2.751-2.752c0-1.52-1.231-2.752-2.751-2.752h-6.614
			c-0.877-1.275-2.344-2.116-4.013-2.116c-0.027,0-0.05,0.007-0.077,0.009l-6.026-8.482c-0.881-1.24-2.599-1.531-3.838-0.65
			c-1.238,0.882-1.529,2.599-0.649,3.838l6.032,8.49c-0.19,0.521-0.31,1.076-0.31,1.662c0,2.689,2.178,4.868,4.867,4.868
			C39.587,46.764,41.055,45.923,41.933,44.647z"/>
		<path fill="#FDFDFE" d="M58.251,61.869c5.055-5.145,8.181-12.191,8.181-19.974c0-15.746-12.765-28.51-28.511-28.51
			c-15.747,0-28.511,12.763-28.511,28.51c0,7.783,3.126,14.829,8.182,19.975l-2.58,2.577c-1.422,1.422-1.422,3.728-0.001,5.149
			c0.71,0.711,1.643,1.066,2.574,1.066s1.863-0.355,2.573-1.065l3.214-3.213c4.262,2.538,9.226,4.022,14.548,4.022
			c5.322,0,10.286-1.484,14.549-4.023l3.215,3.214c0.711,0.71,1.642,1.065,2.574,1.065c0.93,0,1.864-0.355,2.574-1.066
			c1.421-1.422,1.421-3.726-0.001-5.149L58.251,61.869z M37.919,58.667c-1.013,0-1.833,0.823-1.833,1.835v2.473
			C25.875,62.092,17.724,53.94,16.842,43.73h2.472c1.013,0,1.835-0.822,1.835-1.835s-0.822-1.834-1.835-1.834h-2.472
			c0.882-10.21,9.033-18.362,19.244-19.243v2.473c0,1.013,0.821,1.833,1.833,1.833c1.014,0,1.834-0.821,1.834-1.833v-2.473
			c10.212,0.881,18.361,9.033,19.245,19.243h-2.473c-1.013,0-1.834,0.821-1.834,1.834s0.822,1.835,1.834,1.835h2.473
			c-0.882,10.21-9.032,18.361-19.243,19.244v-2.471C39.755,59.49,38.933,58.667,37.919,58.667z"/>
		<path fill="#FDFDFE" d="M30.607,11.867c-2.199-1.622-4.912-2.592-7.854-2.592c-7.328,0-13.268,5.94-13.268,13.268
			c0,1.801,0.362,3.517,1.013,5.083C14.571,19.829,21.865,13.998,30.607,11.867z"/>
		<path fill="#FDFDFE" d="M65.342,27.625c0.65-1.566,1.013-3.282,1.013-5.083c0.001-7.327-5.939-13.268-13.267-13.268
			c-2.944,0-5.655,0.97-7.854,2.594C53.975,13.998,61.268,19.832,65.342,27.625z"/>
	</g>
</g>
</svg>
