<svg id="casino" xmlns="http://www.w3.org/2000/svg" viewBox="0 0 20 20"><defs><style>.cls-1{fill:#fff;}</style></defs><title>Casino</title><path class="cls-1" d="M10,0A10,10,0,1,0,20,10,10,10,0,0,0,10,0Zm6.7,4.8a8.16,8.16,0,0,1,1.7,4.3H16.9a6.07,6.07,0,0,0-1.3-3.2ZM3.3,4.8,4.4,5.9A7,7,0,0,0,3.1,9.1H1.5A8.28,8.28,0,0,1,3.3,4.8Zm.1,10.5a8,8,0,0,1-1.8-4.2H3.1a6.77,6.77,0,0,0,1.4,3.1ZM9,1.6V3.1A6.91,6.91,0,0,0,5.7,4.5l-1-1.1A8.28,8.28,0,0,1,9,1.6ZM9,18.4a8.71,8.71,0,0,1-4.2-1.7l1.1-1.1A7.1,7.1,0,0,0,9,16.9Zm-.7-4.5V12.4h.9l.1-.8a1.48,1.48,0,0,1-.7.1A1.67,1.67,0,0,1,7,10C7,8.9,8,8,9.6,6.5l.4-.4.4.4C12,7.9,13,8.8,13,10a1.69,1.69,0,0,1-1.7,1.7,2,2,0,0,1-.7-.1l.1.8h.9v1.5ZM11,18.4V16.9a7.1,7.1,0,0,0,3.1-1.3l1.1,1.1A7.84,7.84,0,0,1,11,18.4ZM14.3,4.5A7.05,7.05,0,0,0,11,3.1V1.6a8.28,8.28,0,0,1,4.3,1.8Zm2.3,10.8-1.1-1.1a7.27,7.27,0,0,0,1.4-3.1h1.5A7.64,7.64,0,0,1,16.6,15.3Z"/></svg>