<svg xmlns="http://www.w3.org/2000/svg" viewBox="0 0 46 57"><defs><filter x="-27.6%" y="-21.4%" width="155.3%" height="142.9%" filterUnits="objectBoundingBox" id="a"><feOffset dy="1" in="SourceAlpha" result="shadowOffsetOuter1"/><feGaussianBlur stdDeviation="2" in="shadowOffsetOuter1" result="shadowBlurOuter1"/><feColorMatrix values="0 0 0 0 0 0 0 0 0 0 0 0 0 0 0 0 0 0 0.4 0" in="shadowBlurOuter1" result="shadowMatrixOuter1"/><feMerge><feMergeNode in="shadowMatrixOuter1"/><feMergeNode in="SourceGraphic"/></feMerge></filter></defs><g filter="url(#a)" transform="translate(4 3)" fill="none" fill-rule="evenodd"><rect fill="#FFF" width="38" height="49" rx="4"/><path fill="#BC3030" d="M10.852 43.556L5.43 36.069l5.423-7.486 5.434 7.486zM17.64 17.914a7.81 7.81 0 01-.486 2.888 5.74 5.74 0 01-1.321 2.05 5.232 5.232 0 01-1.97 1.235c-.777.281-1.602.42-2.434.412a6.533 6.533 0 01-3.884-1.181c-1.147-.911-1.9-2.186-2.116-3.583L9.207 18.6c.124.573.384 1.113.763 1.577.326.43.858.678 1.419.663.632.034 1.228-.281 1.524-.807.359-.605.536-1.29.511-1.982.08-.79-.217-1.57-.81-2.134a3.127 3.127 0 00-2.028-.686 9.01 9.01 0 00-1.97.251c-.656.139-1.3.327-1.922.564L7.05 5.444h9.902v3.659h-6.204l-.138 3.201c.243-.097.496-.168.754-.213.24-.048.485-.073.73-.077a6.193 6.193 0 012.36.42 4.709 4.709 0 011.735 1.189c.486.539.852 1.163 1.079 1.836.263.795.389 1.623.373 2.455z"/></g></svg>
