<svg xmlns="http://www.w3.org/2000/svg" viewBox="0 0 46 57"><defs><filter x="-27.6%" y="-21.4%" width="155.3%" height="142.9%" filterUnits="objectBoundingBox" id="a"><feOffset dy="1" in="SourceAlpha" result="shadowOffsetOuter1"/><feGaussianBlur stdDeviation="2" in="shadowOffsetOuter1" result="shadowBlurOuter1"/><feColorMatrix values="0 0 0 0 0 0 0 0 0 0 0 0 0 0 0 0 0 0 0.4 0" in="shadowBlurOuter1" result="shadowMatrixOuter1"/><feMerge><feMergeNode in="shadowMatrixOuter1"/><feMergeNode in="SourceGraphic"/></feMerge></filter></defs><g filter="url(#a)" transform="translate(4 3)" fill="none" fill-rule="evenodd"><rect fill="#FFF" width="38" height="49" rx="4"/><path fill="#BC3030" d="M12.21 43.556l-5.424-7.487 5.423-7.486 5.434 7.486z"/><path d="M28.245 11.722a10.74 10.74 0 00-.919-3.086 6.2 6.2 0 00-1.86-2.281 4.949 4.949 0 00-3.089-.905 4.926 4.926 0 00-3.088.905 6.215 6.215 0 00-1.868 2.28c-.455.98-.76 2.02-.904 3.087-.152 1.081-.229 2.17-.231 3.262.006 1.081.086 2.16.24 3.231.142 1.07.446 2.113.902 3.095a6.215 6.215 0 001.869 2.28 4.972 4.972 0 003.088.905 4.996 4.996 0 003.088-.905 6.2 6.2 0 001.861-2.28c.461-.981.771-2.024.919-3.095.33-2.142.33-4.32 0-6.462l-.008-.03zm-4.015 5.2c-.038.64-.131 1.277-.278 1.901-.111.51-.307.998-.579 1.445-.195.362-.579.588-.996.585a1.139 1.139 0 01-.996-.547 4.732 4.732 0 01-.579-1.445 10.649 10.649 0 01-.27-1.9 29.478 29.478 0 01-.07-1.97c0-.623 0-1.246.07-1.938.034-.643.124-1.281.27-1.908a4.753 4.753 0 01.58-1.483c.197-.36.58-.585.995-.586.417-.002.8.223.996.586.273.452.469.945.58 1.46.144.627.237 1.266.277 1.908.047.692.062 1.338.062 1.939 0 .6-.015 1.262-.062 1.954zM5.429 9.268L7.3 12.601l2.803-2.153V24.5h4.147V5.444h-3.696z" fill="#BC3030" fill-rule="nonzero"/></g></svg>
