<svg xmlns="http://www.w3.org/2000/svg" xmlns:xlink="http://www.w3.org/1999/xlink" viewBox="0 0 46 57"><defs><filter x="-17.1%" y="-11.2%" width="134.2%" height="126.5%" filterUnits="objectBoundingBox" id="a"><feOffset dy="1" in="SourceAlpha" result="shadowOffsetOuter1"/><feGaussianBlur stdDeviation="2" in="shadowOffsetOuter1" result="shadowBlurOuter1"/><feColorMatrix values="0 0 0 0 0 0 0 0 0 0 0 0 0 0 0 0 0 0 0.4 0" in="shadowBlurOuter1"/></filter><rect id="b" x="0" y="0" width="38" height="49" rx="4"/></defs><g fill="none" fill-rule="evenodd"><g transform="translate(4 3)"><use fill="#000" filter="url(#a)" xlink:href="#b"/><use fill="#FFF" xlink:href="#b"/></g><path d="M15.531 31.583S9.43 38.338 9.43 40.516c.048 1.57 1.43 2.807 3.087 2.764 1.09.02 2.111-.503 2.692-1.378-.215.52-.467 1.132-.637 1.463-.368.647-1.149 1.83-1.149 1.83h4.227s-.745-1.098-1.122-1.83c-.197-.365-.448-.978-.655-1.488.573.885 1.597 1.419 2.693 1.403.795.021 1.566-.259 2.143-.777a2.777 2.777 0 00.935-1.987c-.01-2.178-6.112-8.933-6.112-8.933zM19.382 8.444l-3.607 6.38c.136-.07.283-.116.434-.137.188-.015.377-.015.565 0 .743-.02 1.48.142 2.143.473.611.305 1.141.747 1.548 1.29.411.578.708 1.228.875 1.915a9.24 9.24 0 01.301 2.412 8.363 8.363 0 01-.448 2.861 5.867 5.867 0 01-1.262 2.106 5.42 5.42 0 01-1.919 1.305 6.448 6.448 0 01-2.422.45 6.856 6.856 0 01-2.477-.434 5.228 5.228 0 01-1.942-1.29c-.565-.596-1-1.3-1.277-2.068a7.987 7.987 0 01-.464-2.824 10.064 10.064 0 01.449-3.052c.294-.922.672-1.816 1.13-2.671l3.552-6.716h4.82zm-3.823 9.219a1.752 1.752 0 00-1.455.87 3.858 3.858 0 00-.588 2.213 3.896 3.896 0 00.588 2.198c.293.536.86.87 1.478.87.617 0 1.185-.334 1.478-.87.386-.668.569-1.43.526-2.198a4.158 4.158 0 00-.534-2.228 1.684 1.684 0 00-1.493-.855z" fill="#1E1E1E" fill-rule="nonzero"/></g></svg>
