<svg xmlns="http://www.w3.org/2000/svg" xmlns:xlink="http://www.w3.org/1999/xlink" viewBox="0 0 46 57"><defs><filter x="-17.1%" y="-11.2%" width="134.2%" height="126.5%" filterUnits="objectBoundingBox" id="a"><feOffset dy="1" in="SourceAlpha" result="shadowOffsetOuter1"/><feGaussianBlur stdDeviation="2" in="shadowOffsetOuter1" result="shadowBlurOuter1"/><feColorMatrix values="0 0 0 0 0 0 0 0 0 0 0 0 0 0 0 0 0 0 0.4 0" in="shadowBlurOuter1"/></filter><rect id="b" x="0" y="0" width="38" height="49" rx="4"/></defs><g fill="none" fill-rule="evenodd"><g transform="translate(4 3)"><use fill="#000" filter="url(#a)" xlink:href="#b"/><use fill="#FFF" xlink:href="#b"/></g><path d="M15.531 31.583S9.43 38.338 9.43 40.516c.048 1.57 1.43 2.807 3.087 2.764 1.09.02 2.111-.503 2.692-1.378-.215.52-.467 1.132-.637 1.463-.368.647-1.149 1.83-1.149 1.83h4.227s-.745-1.098-1.122-1.83c-.197-.365-.448-.978-.655-1.488.573.885 1.597 1.419 2.693 1.403.795.021 1.566-.259 2.143-.777a2.777 2.777 0 00.935-1.987c-.01-2.178-6.112-8.933-6.112-8.933zM21.18 24.506a9.202 9.202 0 001.344-2.961c.327-1.254.487-2.546.475-3.842a14.355 14.355 0 00-.475-3.817 9.097 9.097 0 00-1.345-2.93 6.197 6.197 0 00-2.142-1.88 6.037 6.037 0 00-2.826-.63 6.158 6.158 0 00-2.867.662 6.245 6.245 0 00-2.134 1.88 9.089 9.089 0 00-1.337 2.93 14.719 14.719 0 00-.443 3.785 14.719 14.719 0 00.475 3.842 9.202 9.202 0 001.345 2.961 6.238 6.238 0 002.134 1.905 5.79 5.79 0 001.772.581l.265.412a7.32 7.32 0 001.804 1.824 5.63 5.63 0 002.175.904 5.2 5.2 0 001.932 0v-3.124a2.017 2.017 0 01-1.61 0 2.842 2.842 0 01-.854-.548l.145-.073a6.189 6.189 0 002.166-1.88zm-2.424-4.398a7.088 7.088 0 01-.527 1.731c-.185.438-.466.83-.822 1.149a1.81 1.81 0 01-1.193.429 1.894 1.894 0 01-1.217-.43 3.237 3.237 0 01-.822-1.148 6.447 6.447 0 01-.51-1.731 12.816 12.816 0 01-.164-2.16 12.49 12.49 0 01.164-2.144c.088-.595.26-1.174.51-1.723.184-.436.465-.826.822-1.14a1.92 1.92 0 011.217-.413c.435-.007.858.14 1.193.413.358.314.64.704.822 1.14.25.55.426 1.13.527 1.723.119.709.177 1.426.172 2.144a12.786 12.786 0 01-.205 2.16h.033z" fill="#1E1E1E" fill-rule="nonzero"/></g></svg>
