<svg xmlns="http://www.w3.org/2000/svg" viewBox="0 0 46 57"><defs><filter x="-27.6%" y="-21.4%" width="155.3%" height="142.9%" filterUnits="objectBoundingBox" id="a"><feOffset dy="1" in="SourceAlpha" result="shadowOffsetOuter1"/><feGaussianBlur stdDeviation="2" in="shadowOffsetOuter1" result="shadowBlurOuter1"/><feColorMatrix values="0 0 0 0 0 0 0 0 0 0 0 0 0 0 0 0 0 0 0.4 0" in="shadowBlurOuter1" result="shadowMatrixOuter1"/><feMerge><feMergeNode in="shadowMatrixOuter1"/><feMergeNode in="SourceGraphic"/></feMerge></filter></defs><g filter="url(#a)" transform="translate(4 3)" fill="none" fill-rule="evenodd"><rect fill="#FFF" width="38" height="49" rx="4"/><path d="M15.578 28.583a3.434 3.434 0 00-3.364 2.752 3.433 3.433 0 00-3.7-2.698 3.438 3.438 0 00-3.085 3.388c0 2.703 6.785 10.17 6.785 10.17S19 34.727 19 32.024a3.437 3.437 0 00-.999-2.433 3.417 3.417 0 00-2.423-1.009zM14.83 24.5l-.753-3.47H10.14l-.754 3.47H5.429l4.29-19.056h5.014L19 24.5h-4.17zM12.215 9.589h-.105L10.6 17.688h3.016l-1.403-8.099z" fill="#BC3030" fill-rule="nonzero"/></g></svg>
