<svg xmlns="http://www.w3.org/2000/svg" xmlns:xlink="http://www.w3.org/1999/xlink" viewBox="0 0 46 57"><defs><filter x="-17.1%" y="-11.2%" width="134.2%" height="126.5%" filterUnits="objectBoundingBox" id="a"><feOffset dy="1" in="SourceAlpha" result="shadowOffsetOuter1"/><feGaussianBlur stdDeviation="2" in="shadowOffsetOuter1" result="shadowBlurOuter1"/><feColorMatrix values="0 0 0 0 0 0 0 0 0 0 0 0 0 0 0 0 0 0 0.4 0" in="shadowBlurOuter1"/></filter><rect id="b" x="0" y="0" width="38" height="49" rx="4"/></defs><g fill="none" fill-rule="evenodd"><g transform="translate(4 3)"><use fill="#000" filter="url(#a)" xlink:href="#b"/><use fill="#FFF" xlink:href="#b"/></g><path d="M19.9 37c-.8 0-2 .6-2.8 1.3.9-1 2.1-2.6 2.1-3.6a3 3 0 00-3-3.1 3 3 0 00-3 3c0 1.1 1.2 2.8 2 3.8-.8-.8-2-1.5-2.7-1.5a3 3 0 00-3 3 3 3 0 003 3.1c1 0 2.3-1 3.3-1.9a27 27 0 01-.7 2l-1.2 2h4.5l-1.2-2-.7-2c1 .9 2.4 2 3.4 2a3 3 0 002.7-1.6 3 3 0 000-3 3 3 0 00-2.7-1.6zM14.4 21c-.8 0-1.5-.1-2.2-.4-.6-.3-1.1-.8-1.5-1.3-.5-.6-.8-1.2-1-2a9 9 0 01.2-5.2c.3-.7.7-1.4 1.3-2 .6-.6 1.2-1 2-1.2a6.4 6.4 0 014.8 0 5.4 5.4 0 013.2 3.3c.3.9.5 1.8.4 2.8 0 1-.1 2.1-.4 3.1a17 17 0 01-1.1 2.6l-3.6 6.8h-4.8l3.7-6.6-.5.1a3 3 0 01-.5 0zm-.9-6c0 .8.2 1.6.6 2.2.3.6.8.9 1.5.9.6 0 1.1-.4 1.4-.9.4-.6.6-1.4.6-2.1 0-.8-.2-1.6-.6-2.2-.3-.5-.9-.8-1.5-.8s-1.1.3-1.4.8c-.4.6-.6 1.4-.6 2.2z" fill="#1E1E1E" fill-rule="nonzero"/></g></svg>
