<svg xmlns="http://www.w3.org/2000/svg" viewBox="0 0 46 57"><defs><filter x="-27.6%" y="-21.4%" width="155.3%" height="142.9%" filterUnits="objectBoundingBox" id="a"><feOffset dy="1" in="SourceAlpha" result="shadowOffsetOuter1"/><feGaussianBlur stdDeviation="2" in="shadowOffsetOuter1" result="shadowBlurOuter1"/><feColorMatrix values="0 0 0 0 0 0 0 0 0 0 0 0 0 0 0 0 0 0 0.4 0" in="shadowBlurOuter1" result="shadowMatrixOuter1"/><feMerge><feMergeNode in="shadowMatrixOuter1"/><feMergeNode in="SourceGraphic"/></feMerge></filter></defs><g filter="url(#a)" transform="translate(4 3)" fill="none" fill-rule="evenodd"><rect fill="#FFF" width="38" height="49" rx="4"/><path d="M15.9 34c-.8 0-2 .6-2.8 1.3.9-1 2.1-2.6 2.1-3.6a3 3 0 00-3-3.1 3 3 0 00-3 3c0 1.1 1.2 2.8 2 3.8-.8-.8-2-1.5-2.7-1.5a3 3 0 00-3 3 3 3 0 003 3.1c1 0 2.3-1 3.3-1.9a27 27 0 01-.7 2l-1.2 2h4.5l-1.2-2-.7-2c1 .9 2.4 2 3.4 2a3 3 0 002.7-1.6 3 3 0 000-3 3 3 0 00-2.7-1.6zM17.2 21.5c.6-.9 1-1.9 1.3-3a14.7 14.7 0 000-7.6c-.2-1-.7-2-1.3-3A6.2 6.2 0 0015 6.2a6 6 0 00-2.8-.7c-1 0-2 .3-2.9.7-.8.5-1.5 1.1-2 1.9a9 9 0 00-1.4 3 14.7 14.7 0 000 7.6c.3 1 .7 2 1.3 3 .6.7 1.3 1.4 2.2 1.8.5.3 1.1.5 1.8.6l.2.4c.5.7 1.1 1.3 1.8 1.8a5.6 5.6 0 004.1 1V24a2 2 0 01-1.6 0l-.8-.5.1-.1c.9-.5 1.6-1.1 2.2-1.9zm-2.4-4.4a7 7 0 01-.6 1.7c-.2.5-.4.9-.8 1.2-.3.3-.7.4-1.2.4-.4 0-.9-.1-1.2-.4-.4-.3-.6-.7-.8-1.2-.3-.5-.4-1-.5-1.7a12.8 12.8 0 01.5-6c.2-.5.4-.8.8-1.2a2 2 0 011.2-.4c.4 0 .9.2 1.2.4.4.4.6.7.8 1.2.3.5.5 1.1.6 1.7a12.5 12.5 0 010 4.3z" fill="#1E1E1E" fill-rule="nonzero"/></g></svg>
