<svg xmlns="http://www.w3.org/2000/svg" xmlns:xlink="http://www.w3.org/1999/xlink" viewBox="0 0 46 57"><defs><filter x="-17.1%" y="-11.2%" width="134.2%" height="126.5%" filterUnits="objectBoundingBox" id="a"><feOffset dy="1" in="SourceAlpha" result="shadowOffsetOuter1"/><feGaussianBlur stdDeviation="2" in="shadowOffsetOuter1" result="shadowBlurOuter1"/><feColorMatrix values="0 0 0 0 0 0 0 0 0 0 0 0 0 0 0 0 0 0 0.4 0" in="shadowBlurOuter1"/></filter><rect id="b" x="0" y="0" width="38" height="49" rx="4"/></defs><g fill="none" fill-rule="evenodd"><g transform="translate(4 3)"><use fill="#000" filter="url(#a)" xlink:href="#b"/><use fill="#FFF" xlink:href="#b"/></g><path d="M15.531 31.583S9.43 38.338 9.43 40.516c.048 1.57 1.43 2.807 3.087 2.764 1.09.02 2.111-.503 2.692-1.378-.215.52-.467 1.132-.637 1.463-.368.647-1.149 1.83-1.149 1.83h4.227s-.745-1.098-1.122-1.83c-.197-.365-.448-.978-.655-1.488.573.885 1.597 1.419 2.693 1.403.795.021 1.566-.259 2.143-.777a2.777 2.777 0 00.935-1.987c-.01-2.178-6.112-8.933-6.112-8.933zM21.642 13.987a5.711 5.711 0 01-.247 1.715 7.775 7.775 0 01-.674 1.524c-.28.475-.596.931-.947 1.364-.362.442-.724.862-1.095 1.265l-3.695 4.025h6.411v3.62H9.667v-3.735l6.017-6.5a7.323 7.323 0 001.152-1.624c.263-.496.404-1.04.411-1.593a2.368 2.368 0 00-.403-1.395 1.456 1.456 0 00-1.267-.58 1.695 1.695 0 00-1.35.618 3.16 3.16 0 00-.601 1.799l-4.197-.366c.08-1.608.815-3.128 2.057-4.253 1.168-.948 2.678-1.456 4.23-1.425.843-.014 1.681.12 2.47.396a5.446 5.446 0 011.851 1.128 4.8 4.8 0 011.186 1.738 6 6 0 01.42 2.279z" fill="#1E1E1E" fill-rule="nonzero"/></g></svg>
