<svg xmlns="http://www.w3.org/2000/svg" viewBox="0 0 46 57"><defs><filter x="-27.6%" y="-21.4%" width="155.3%" height="142.9%" filterUnits="objectBoundingBox" id="a"><feOffset dy="1" in="SourceAlpha" result="shadowOffsetOuter1"/><feGaussianBlur stdDeviation="2" in="shadowOffsetOuter1" result="shadowBlurOuter1"/><feColorMatrix values="0 0 0 0 0 0 0 0 0 0 0 0 0 0 0 0 0 0 0.4 0" in="shadowBlurOuter1" result="shadowMatrixOuter1"/><feMerge><feMergeNode in="shadowMatrixOuter1"/><feMergeNode in="SourceGraphic"/></feMerge></filter></defs><g filter="url(#a)" transform="translate(4 3)" fill="none" fill-rule="evenodd"><rect fill="#FFF" width="38" height="49" rx="4"/><path d="M15.578 28.583a3.434 3.434 0 00-3.364 2.752 3.433 3.433 0 00-3.7-2.698 3.438 3.438 0 00-3.085 3.388c0 2.703 6.785 10.17 6.785 10.17S19 34.727 19 32.024a3.437 3.437 0 00-.999-2.433 3.417 3.417 0 00-2.423-1.009zM17.642 10.987a5.711 5.711 0 01-.247 1.715 7.775 7.775 0 01-.674 1.524c-.28.475-.596.931-.947 1.364-.362.442-.724.862-1.095 1.265l-3.695 4.025h6.411v3.62H5.667v-3.735l6.017-6.5a7.323 7.323 0 001.152-1.624c.263-.496.404-1.04.411-1.593a2.368 2.368 0 00-.403-1.395 1.456 1.456 0 00-1.267-.58 1.695 1.695 0 00-1.35.618 3.16 3.16 0 00-.601 1.799l-4.197-.366c.08-1.608.815-3.128 2.057-4.253 1.168-.948 2.678-1.456 4.23-1.425.843-.014 1.681.12 2.47.396a5.446 5.446 0 011.851 1.128 4.8 4.8 0 011.186 1.738 6 6 0 01.42 2.279z" fill="#BC3030" fill-rule="nonzero"/></g></svg>
