<svg xmlns="http://www.w3.org/2000/svg" viewBox="0 0 46 57"><defs><filter x="-27.6%" y="-21.4%" width="155.3%" height="142.9%" filterUnits="objectBoundingBox" id="a"><feOffset dy="1" in="SourceAlpha" result="shadowOffsetOuter1"/><feGaussianBlur stdDeviation="2" in="shadowOffsetOuter1" result="shadowBlurOuter1"/><feColorMatrix values="0 0 0 0 0 0 0 0 0 0 0 0 0 0 0 0 0 0 0.4 0" in="shadowBlurOuter1" result="shadowMatrixOuter1"/><feMerge><feMergeNode in="shadowMatrixOuter1"/><feMergeNode in="SourceGraphic"/></feMerge></filter></defs><g filter="url(#a)" transform="translate(4 3)" fill="none" fill-rule="evenodd"><rect fill="#FFF" width="38" height="49" rx="4"/><path d="M15.578 28.583a3.434 3.434 0 00-3.364 2.752 3.433 3.433 0 00-3.7-2.698 3.438 3.438 0 00-3.085 3.388c0 2.703 6.785 10.17 6.785 10.17S19 34.727 19 32.024a3.437 3.437 0 00-.999-2.433 3.417 3.417 0 00-2.423-1.009z" fill="#BC3030" fill-rule="nonzero"/><path d="M15.382 5.444l-3.607 6.38c.136-.07.283-.116.434-.137.188-.015.377-.015.565 0 .743-.02 1.48.142 2.143.473.611.305 1.141.747 1.548 1.29.411.578.708 1.228.875 1.915a9.24 9.24 0 01.301 2.412 8.363 8.363 0 01-.448 2.861 5.867 5.867 0 01-1.262 2.106 5.42 5.42 0 01-1.919 1.305 6.448 6.448 0 01-2.422.45 6.856 6.856 0 01-2.477-.434 5.228 5.228 0 01-1.942-1.29c-.565-.596-1-1.3-1.277-2.068a7.987 7.987 0 01-.464-2.824 10.064 10.064 0 01.449-3.052c.294-.922.672-1.816 1.13-2.671l3.552-6.716h4.82zm-3.823 9.219a1.752 1.752 0 00-1.455.87 3.858 3.858 0 00-.588 2.213 3.896 3.896 0 00.588 2.198c.293.536.86.87 1.478.87.617 0 1.185-.334 1.478-.87.386-.668.569-1.43.526-2.198a4.158 4.158 0 00-.534-2.228 1.684 1.684 0 00-1.493-.855z" fill="#BC3030"/></g></svg>
