<svg xmlns="http://www.w3.org/2000/svg" viewBox="0 0 46 57"><defs><filter x="-27.6%" y="-21.4%" width="155.3%" height="142.9%" filterUnits="objectBoundingBox" id="a"><feOffset dy="1" in="SourceAlpha" result="shadowOffsetOuter1"/><feGaussianBlur stdDeviation="2" in="shadowOffsetOuter1" result="shadowBlurOuter1"/><feColorMatrix values="0 0 0 0 0 0 0 0 0 0 0 0 0 0 0 0 0 0 0.4 0" in="shadowBlurOuter1" result="shadowMatrixOuter1"/><feMerge><feMergeNode in="shadowMatrixOuter1"/><feMergeNode in="SourceGraphic"/></feMerge></filter></defs><g filter="url(#a)" transform="translate(4 3)" fill="none" fill-rule="evenodd"><rect fill="#FFF" width="38" height="49" rx="4"/><path d="M11.531 28.583S5.43 35.338 5.43 37.516c.048 1.57 1.43 2.807 3.087 2.764 1.09.02 2.111-.503 2.692-1.378-.215.52-.467 1.132-.637 1.463-.368.647-1.149 1.83-1.149 1.83h4.227s-.745-1.098-1.122-1.83c-.197-.365-.448-.978-.655-1.488.573.885 1.597 1.419 2.693 1.403.795.021 1.566-.259 2.143-.777a2.777 2.777 0 00.935-1.987c-.01-2.178-6.112-8.933-6.112-8.933zM17.64 17.914a7.81 7.81 0 01-.486 2.888 5.74 5.74 0 01-1.321 2.05 5.232 5.232 0 01-1.97 1.235c-.777.281-1.602.42-2.434.412a6.533 6.533 0 01-3.884-1.181c-1.147-.911-1.9-2.186-2.116-3.583L9.207 18.6c.124.573.384 1.113.763 1.577.326.43.858.678 1.419.663.632.034 1.228-.281 1.524-.807.359-.605.536-1.29.511-1.982.08-.79-.217-1.57-.81-2.134a3.127 3.127 0 00-2.028-.686 9.01 9.01 0 00-1.97.251c-.656.139-1.3.327-1.922.564L7.05 5.444h9.902v3.659h-6.204l-.138 3.201c.243-.097.496-.168.754-.213.24-.048.485-.073.73-.077a6.193 6.193 0 012.36.42 4.709 4.709 0 011.735 1.189c.486.539.852 1.163 1.079 1.836.263.795.389 1.623.373 2.455z" fill="#1E1E1E" fill-rule="nonzero"/></g></svg>
