<svg xmlns="http://www.w3.org/2000/svg" viewBox="0 0 46 57"><defs><filter x="-27.6%" y="-21.4%" width="155.3%" height="142.9%" filterUnits="objectBoundingBox" id="a"><feOffset dy="1" in="SourceAlpha" result="shadowOffsetOuter1"/><feGaussianBlur stdDeviation="2" in="shadowOffsetOuter1" result="shadowBlurOuter1"/><feColorMatrix values="0 0 0 0 0 0 0 0 0 0 0 0 0 0 0 0 0 0 0.4 0" in="shadowBlurOuter1" result="shadowMatrixOuter1"/><feMerge><feMergeNode in="shadowMatrixOuter1"/><feMergeNode in="SourceGraphic"/></feMerge></filter></defs><g filter="url(#a)" transform="translate(4 3)" fill="none" fill-rule="evenodd"><rect fill="#FFF" width="38" height="49" rx="4"/><path d="M15.578 28.583a3.434 3.434 0 00-3.364 2.752 3.433 3.433 0 00-3.7-2.698 3.438 3.438 0 00-3.085 3.388c0 2.703 6.785 10.17 6.785 10.17S19 34.727 19 32.024a3.437 3.437 0 00-.999-2.433 3.417 3.417 0 00-2.423-1.009zM17.641 18.755a5.929 5.929 0 01-.476 2.457 5.32 5.32 0 01-1.277 1.802 5.46 5.46 0 01-1.905 1.11 7.2 7.2 0 01-2.38.373 6.915 6.915 0 01-4.024-1.148 5.595 5.595 0 01-2.15-3.506l3.809-.928a3.13 3.13 0 00.754 1.468c.382.39.925.6 1.484.57.31.007.616-.064.888-.205a2.03 2.03 0 00.635-.54c.17-.232.299-.489.381-.761.08-.283.12-.574.12-.867a2.113 2.113 0 00-.715-1.757 2.967 2.967 0 00-1.905-.563H9.873v-3.042h1.11a2.178 2.178 0 001.659-.609 2.361 2.361 0 00.58-1.688c-.004-.471-.15-.93-.421-1.324a1.491 1.491 0 00-1.333-.616 1.524 1.524 0 00-1.215.487 3.228 3.228 0 00-.65 1.24l-3.73-.898a6.18 6.18 0 01.936-2.015c.377-.523.84-.983 1.373-1.362a5.666 5.666 0 011.69-.76 7.324 7.324 0 011.857-.229c.693 0 1.382.105 2.04.312.645.2 1.246.515 1.77.928.523.418.95.936 1.253 1.522.324.682.484 1.425.469 2.175a4.851 4.851 0 01-.723 2.67 3.412 3.412 0 01-1.896 1.52v.077c.9.232 1.68.773 2.19 1.52a4.43 4.43 0 01.81 2.587z" fill="#BC3030" fill-rule="nonzero"/></g></svg>
