<svg xmlns="http://www.w3.org/2000/svg" viewBox="0 0 46 57"><defs><filter x="-27.6%" y="-21.4%" width="155.3%" height="142.9%" filterUnits="objectBoundingBox" id="a"><feOffset dy="1" in="SourceAlpha" result="shadowOffsetOuter1"/><feGaussianBlur stdDeviation="2" in="shadowOffsetOuter1" result="shadowBlurOuter1"/><feColorMatrix values="0 0 0 0 0 0 0 0 0 0 0 0 0 0 0 0 0 0 0.4 0" in="shadowBlurOuter1" result="shadowMatrixOuter1"/><feMerge><feMergeNode in="shadowMatrixOuter1"/><feMergeNode in="SourceGraphic"/></feMerge></filter></defs><g filter="url(#a)" transform="translate(4 3)" fill="none" fill-rule="evenodd"><rect fill="#FFF" width="38" height="49" rx="4"/><path d="M15.578 28.583a3.434 3.434 0 00-3.364 2.752 3.433 3.433 0 00-3.7-2.698 3.438 3.438 0 00-3.085 3.388c0 2.703 6.785 10.17 6.785 10.17S19 34.727 19 32.024a3.437 3.437 0 00-.999-2.433 3.417 3.417 0 00-2.423-1.009zM17.18 21.506a9.202 9.202 0 001.344-2.961c.327-1.254.487-2.546.475-3.842a14.355 14.355 0 00-.475-3.817 9.097 9.097 0 00-1.345-2.93 6.197 6.197 0 00-2.142-1.88 6.037 6.037 0 00-2.826-.63 6.158 6.158 0 00-2.867.662 6.245 6.245 0 00-2.134 1.88 9.089 9.089 0 00-1.337 2.93 14.719 14.719 0 00-.443 3.785 14.719 14.719 0 00.475 3.842 9.202 9.202 0 001.345 2.961 6.238 6.238 0 002.134 1.905 5.79 5.79 0 001.772.581l.265.412a7.32 7.32 0 001.804 1.824 5.63 5.63 0 002.175.904 5.2 5.2 0 001.932 0v-3.124a2.017 2.017 0 01-1.61 0 2.842 2.842 0 01-.854-.548l.145-.073a6.189 6.189 0 002.166-1.88zm-2.424-4.398a7.088 7.088 0 01-.527 1.731c-.185.438-.466.83-.822 1.149a1.81 1.81 0 01-1.193.429 1.894 1.894 0 01-1.217-.43 3.237 3.237 0 01-.822-1.148 6.447 6.447 0 01-.51-1.731 12.816 12.816 0 01-.164-2.16 12.49 12.49 0 01.164-2.144c.088-.595.26-1.174.51-1.723.184-.436.465-.826.822-1.14a1.92 1.92 0 011.217-.413c.435-.007.858.14 1.193.413.358.314.64.704.822 1.14.25.55.426 1.13.527 1.723.119.709.177 1.426.172 2.144a12.786 12.786 0 01-.205 2.16h.033z" fill="#BC3030" fill-rule="nonzero"/></g></svg>
