<svg xmlns="http://www.w3.org/2000/svg" viewBox="0 0 46 57"><defs><filter x="-27.6%" y="-21.4%" width="155.3%" height="142.9%" filterUnits="objectBoundingBox" id="a"><feOffset dy="1" in="SourceAlpha" result="shadowOffsetOuter1"/><feGaussianBlur stdDeviation="2" in="shadowOffsetOuter1" result="shadowBlurOuter1"/><feColorMatrix values="0 0 0 0 0 0 0 0 0 0 0 0 0 0 0 0 0 0 0.4 0" in="shadowBlurOuter1" result="shadowMatrixOuter1"/><feMerge><feMergeNode in="shadowMatrixOuter1"/><feMergeNode in="SourceGraphic"/></feMerge></filter></defs><g filter="url(#a)" transform="translate(4 3)" fill="none" fill-rule="evenodd"><rect fill="#FFF" width="38" height="49" rx="4"/><path d="M11.531 28.583S5.43 35.338 5.43 37.516c.048 1.57 1.43 2.807 3.087 2.764 1.09.02 2.111-.503 2.692-1.378-.215.52-.467 1.132-.637 1.463-.368.647-1.149 1.83-1.149 1.83h4.227s-.745-1.098-1.122-1.83c-.197-.365-.448-.978-.655-1.488.573.885 1.597 1.419 2.693 1.403.795.021 1.566-.259 2.143-.777a2.777 2.777 0 00.935-1.987c-.01-2.178-6.112-8.933-6.112-8.933zM14.83 24.5l-.753-3.47H10.14l-.754 3.47H5.429l4.29-19.056h5.014L19 24.5h-4.17zM12.215 9.589h-.105L10.6 17.688h3.016l-1.403-8.099z" fill="#1E1E1E" fill-rule="nonzero"/></g></svg>
