<svg xmlns="http://www.w3.org/2000/svg" xmlns:xlink="http://www.w3.org/1999/xlink" viewBox="0 0 46 57"><defs><filter x="-17.1%" y="-11.2%" width="134.2%" height="126.5%" filterUnits="objectBoundingBox" id="a"><feOffset dy="1" in="SourceAlpha" result="shadowOffsetOuter1"/><feGaussianBlur stdDeviation="2" in="shadowOffsetOuter1" result="shadowBlurOuter1"/><feColorMatrix values="0 0 0 0 0 0 0 0 0 0 0 0 0 0 0 0 0 0 0.4 0" in="shadowBlurOuter1"/></filter><rect id="b" x="0" y="0" width="38" height="49" rx="4"/></defs><g fill="none" fill-rule="evenodd"><g transform="translate(4 3)"><use fill="#000" filter="url(#a)" xlink:href="#b"/><use fill="#FFF" xlink:href="#b"/></g><path d="M19.578 31.583a3.434 3.434 0 00-3.364 2.752 3.433 3.433 0 00-3.7-2.698 3.438 3.438 0 00-3.085 3.388c0 2.703 6.785 10.17 6.785 10.17S23 37.727 23 35.024a3.437 3.437 0 00-.999-2.433 3.417 3.417 0 00-2.423-1.009z" fill="#BC3030" fill-rule="nonzero"/><path d="M21.64 20.914a7.81 7.81 0 01-.486 2.888 5.74 5.74 0 01-1.321 2.05 5.232 5.232 0 01-1.97 1.235c-.777.281-1.602.42-2.434.412a6.533 6.533 0 01-3.884-1.181c-1.147-.911-1.9-2.186-2.116-3.583l3.778-1.135c.124.573.384 1.113.763 1.577.326.43.858.678 1.419.663.632.034 1.228-.281 1.524-.807.359-.605.536-1.29.511-1.982.08-.79-.217-1.57-.81-2.134a3.127 3.127 0 00-2.028-.686 9.01 9.01 0 00-1.97.251c-.656.139-1.3.327-1.922.564l.356-10.602h9.902v3.659h-6.204l-.138 3.201c.243-.097.496-.168.754-.213.24-.048.485-.073.73-.077a6.193 6.193 0 012.36.42 4.709 4.709 0 011.735 1.189c.486.539.852 1.163 1.079 1.836.263.795.389 1.623.373 2.455z" fill="#BC3030"/></g></svg>
