<svg xmlns="http://www.w3.org/2000/svg" viewBox="0 0 46 57"><defs><filter x="-27.6%" y="-21.4%" width="155.3%" height="142.9%" filterUnits="objectBoundingBox" id="a"><feOffset dy="1" in="SourceAlpha" result="shadowOffsetOuter1"/><feGaussianBlur stdDeviation="2" in="shadowOffsetOuter1" result="shadowBlurOuter1"/><feColorMatrix values="0 0 0 0 0 0 0 0 0 0 0 0 0 0 0 0 0 0 0.4 0" in="shadowBlurOuter1" result="shadowMatrixOuter1"/><feMerge><feMergeNode in="shadowMatrixOuter1"/><feMergeNode in="SourceGraphic"/></feMerge></filter></defs><g filter="url(#a)" transform="translate(4 3)" fill="none" fill-rule="evenodd"><rect fill="#FFF" width="38" height="49" rx="4"/><path d="M15.9 34c-.8 0-2 .6-2.8 1.3.9-1 2.1-2.6 2.1-3.6a3 3 0 00-3-3.1 3 3 0 00-3 3c0 1.1 1.2 2.8 2 3.8-.8-.8-2-1.5-2.7-1.5a3 3 0 00-3 3 3 3 0 003 3.1c1 0 2.3-1 3.3-1.9a27 27 0 01-.7 2l-1.2 2h4.5l-1.2-2-.7-2c1 .9 2.4 2 3.4 2a3 3 0 002.7-1.6 3 3 0 000-3 3 3 0 00-2.7-1.6zM17.6 18.8a6 6 0 01-.4 2.4 5.3 5.3 0 01-3.2 3l-2.4.3a7 7 0 01-4-1.2c-1.2-.8-2-2-2.2-3.5l3.8-.9c.2.6.4 1 .8 1.5.4.4 1 .6 1.5.6a1.8 1.8 0 001.5-.8l.4-.8.1-.8c0-.7-.2-1.3-.7-1.8a3 3 0 00-2-.5h-1v-3H11c.6 0 1.2-.3 1.6-.7.5-.5.7-1 .6-1.7 0-.5-.1-1-.4-1.3-.3-.4-.8-.7-1.3-.6-.5 0-1 .1-1.2.5-.4.3-.6.8-.7 1.2l-3.7-.9c.2-.7.5-1.4 1-2 .3-.5.7-1 1.3-1.4a7.3 7.3 0 015.6-.7l1.7 1c.6.4 1 1 1.3 1.5.3.7.5 1.4.5 2.2 0 1-.3 1.8-.8 2.7-.4.7-1 1.2-1.9 1.5 1 .3 1.7.8 2.2 1.6.6.7.8 1.6.8 2.6z" fill="#1E1E1E" fill-rule="nonzero"/></g></svg>
