<svg xmlns="http://www.w3.org/2000/svg" viewBox="0 0 46 57"><defs><filter x="-27.6%" y="-21.4%" width="155.3%" height="142.9%" filterUnits="objectBoundingBox" id="a"><feOffset dy="1" in="SourceAlpha" result="shadowOffsetOuter1"/><feGaussianBlur stdDeviation="2" in="shadowOffsetOuter1" result="shadowBlurOuter1"/><feColorMatrix values="0 0 0 0 0 0 0 0 0 0 0 0 0 0 0 0 0 0 0.4 0" in="shadowBlurOuter1" result="shadowMatrixOuter1"/><feMerge><feMergeNode in="shadowMatrixOuter1"/><feMergeNode in="SourceGraphic"/></feMerge></filter></defs><g filter="url(#a)" transform="translate(4 3)" fill="none" fill-rule="evenodd"><rect fill="#FFF" width="38" height="49" rx="4"/><path d="M15.578 28.583a3.434 3.434 0 00-3.364 2.752 3.433 3.433 0 00-3.7-2.698 3.438 3.438 0 00-3.085 3.388c0 2.703 6.785 10.17 6.785 10.17S19 34.727 19 32.024a3.437 3.437 0 00-.999-2.433 3.417 3.417 0 00-2.423-1.009z" fill="#BC3030" fill-rule="nonzero"/><path d="M16.1 22.773c-1.164 1.19-2.938 1.829-4.759 1.714-1.4.033-2.768-.358-3.857-1.103-1.063-.757-1.788-1.799-2.055-2.952l3.96-1.5c.11.398.31.772.591 1.104.244.301.648.482 1.08.484.585.047 1.133-.247 1.332-.714a4.85 4.85 0 00.32-1.968V5.444h4.917V18.14c.11 1.645-.429 3.275-1.53 4.634z" fill="#BC3030"/></g></svg>
