<svg xmlns="http://www.w3.org/2000/svg" viewBox="0 0 46 57"><defs><filter x="-27.6%" y="-21.4%" width="155.3%" height="142.9%" filterUnits="objectBoundingBox" id="a"><feOffset dy="1" in="SourceAlpha" result="shadowOffsetOuter1"/><feGaussianBlur stdDeviation="2" in="shadowOffsetOuter1" result="shadowBlurOuter1"/><feColorMatrix values="0 0 0 0 0 0 0 0 0 0 0 0 0 0 0 0 0 0 0.4 0" in="shadowBlurOuter1" result="shadowMatrixOuter1"/><feMerge><feMergeNode in="shadowMatrixOuter1"/><feMergeNode in="SourceGraphic"/></feMerge></filter></defs><g filter="url(#a)" transform="translate(4 3)" fill="none" fill-rule="evenodd"><rect fill="#FFF" width="38" height="49" rx="4"/><path fill="#BC3030" d="M10.852 43.556L5.43 36.069l5.423-7.486 5.434 7.486zM10.361 18.032a4.62 4.62 0 01-2.156-.474 4.572 4.572 0 01-1.546-1.28 5.446 5.446 0 01-.92-1.919 9.007 9.007 0 01-.309-2.376c-.02-.966.14-1.927.472-2.834a5.75 5.75 0 011.306-2.057 5.306 5.306 0 011.955-1.227 6.773 6.773 0 012.404-.42 6.45 6.45 0 012.404.42c.727.277 1.386.709 1.932 1.265.561.59.995 1.291 1.275 2.058.323.901.48 1.853.464 2.81.014 1.053-.138 2.101-.449 3.107-.3.91-.678 1.794-1.128 2.64L12.518 24.5H7.702l3.656-6.623a1.302 1.302 0 01-.433.132 2.954 2.954 0 01-.564.023zm-.865-5.956c-.018.763.18 1.514.571 2.167.312.523.878.84 1.484.83a1.745 1.745 0 001.484-.846c.4-.643.594-1.393.557-2.15a3.725 3.725 0 00-.58-2.175 1.722 1.722 0 00-1.468-.83 1.698 1.698 0 00-1.477.792 3.78 3.78 0 00-.571 2.212z"/></g></svg>
