<svg xmlns="http://www.w3.org/2000/svg" viewBox="0 0 46 57"><defs><filter x="-27.6%" y="-21.4%" width="155.3%" height="142.9%" filterUnits="objectBoundingBox" id="a"><feOffset dy="1" in="SourceAlpha" result="shadowOffsetOuter1"/><feGaussianBlur stdDeviation="2" in="shadowOffsetOuter1" result="shadowBlurOuter1"/><feColorMatrix values="0 0 0 0 0 0 0 0 0 0 0 0 0 0 0 0 0 0 0.4 0" in="shadowBlurOuter1" result="shadowMatrixOuter1"/><feMerge><feMergeNode in="shadowMatrixOuter1"/><feMergeNode in="SourceGraphic"/></feMerge></filter></defs><g filter="url(#a)" transform="translate(4 3)" fill="none" fill-rule="evenodd"><rect fill="#FFF" width="38" height="49" rx="4"/><path d="M15.9 34c-.8 0-2 .6-2.8 1.3.9-1 2.1-2.6 2.1-3.6a3 3 0 00-3-3.1 3 3 0 00-3 3c0 1.1 1.2 2.8 2 3.8-.8-.8-2-1.5-2.7-1.5a3 3 0 00-3 3 3 3 0 003 3.1c1 0 2.3-1 3.3-1.9a27 27 0 01-.7 2l-1.2 2h4.5l-1.2-2-.7-2c1 .9 2.4 2 3.4 2a3 3 0 002.7-1.6 3 3 0 000-3 3 3 0 00-2.7-1.6zM17.6 19c0 .7-.1 1.5-.4 2.2-.3.6-.7 1.2-1.2 1.7-.6.5-1.2 1-2 1.2-.8.3-1.6.4-2.5.4-.9 0-1.7-.1-2.5-.4-.8-.3-1.4-.7-2-1.2A5 5 0 016 21.2a5.6 5.6 0 01.4-5.2l1-1 1-.5c-.7-.3-1.4-.9-1.8-1.6a5 5 0 01.7-6 6.8 6.8 0 014.3-1.5c.8 0 1.7.2 2.5.5.7.2 1.3.6 1.8 1a4.7 4.7 0 011.5 3.5c0 1-.2 1.8-.7 2.5a4 4 0 01-1.9 1.5v.1c.4.1.8.3 1.1.6a4.3 4.3 0 011.6 2.2c.2.5.3 1.1.2 1.7zm-4.2-.3c0-.6-.2-1.3-.5-1.8s-.9-.8-1.4-.8c-.6 0-1.1.3-1.4.8-.4.5-.6 1.2-.5 1.9 0 .6.1 1.3.5 1.8.3.5.8.8 1.4.8.5 0 1-.3 1.4-.8.3-.5.5-1.2.5-1.9zm-.2-8a3 3 0 00-.4-1.6c-.3-.4-.8-.7-1.3-.6-.5 0-1 .2-1.3.6a3 3 0 00-.4 1.7c0 .6.1 1.1.4 1.6.3.5.8.8 1.3.8s1-.3 1.3-.8c.3-.5.4-1 .4-1.6z" fill="#1E1E1E" fill-rule="nonzero"/></g></svg>
