<svg xmlns="http://www.w3.org/2000/svg" viewBox="0 0 46 57"><defs><filter x="-27.6%" y="-21.4%" width="155.3%" height="142.9%" filterUnits="objectBoundingBox" id="a"><feOffset dy="1" in="SourceAlpha" result="shadowOffsetOuter1"/><feGaussianBlur stdDeviation="2" in="shadowOffsetOuter1" result="shadowBlurOuter1"/><feColorMatrix values="0 0 0 0 0 0 0 0 0 0 0 0 0 0 0 0 0 0 0.4 0" in="shadowBlurOuter1" result="shadowMatrixOuter1"/><feMerge><feMergeNode in="shadowMatrixOuter1"/><feMergeNode in="SourceGraphic"/></feMerge></filter></defs><g filter="url(#a)" transform="translate(4 3)" fill="none" fill-rule="evenodd"><rect fill="#FFF" width="38" height="49" rx="4"/><path fill="#BC3030" d="M10.9 43.6L5.4 36l5.5-7.5 5.4 7.5z"/><path d="M17.6 11c0 .6 0 1.1-.2 1.7l-.7 1.5-1 1.4-1 1.3-3.7 4h6.4v3.6H5.7v-3.7l6-6.5c.4-.5.8-1 1.1-1.7.3-.5.4-1 .4-1.6 0-.4 0-1-.4-1.3-.2-.4-.7-.7-1.2-.6-.6 0-1 .2-1.4.6-.4.5-.6 1.1-.6 1.8L5.4 11c.1-1.6.8-3.1 2-4.2a7.1 7.1 0 016.7-1c.8.2 1.4.6 2 1a6 6 0 011.6 4z" fill="#BC3030" fill-rule="nonzero"/></g></svg>
