<svg xmlns="http://www.w3.org/2000/svg" xmlns:xlink="http://www.w3.org/1999/xlink" viewBox="0 0 46 57"><defs><filter x="-17.1%" y="-11.2%" width="134.2%" height="126.5%" filterUnits="objectBoundingBox" id="a"><feOffset dy="1" in="SourceAlpha" result="shadowOffsetOuter1"/><feGaussianBlur stdDeviation="2" in="shadowOffsetOuter1" result="shadowBlurOuter1"/><feColorMatrix values="0 0 0 0 0 0 0 0 0 0 0 0 0 0 0 0 0 0 0.4 0" in="shadowBlurOuter1"/></filter><rect id="b" x="0" y="0" width="38" height="49" rx="4"/></defs><g fill="none" fill-rule="evenodd"><g transform="translate(4 3)"><use fill="#000" filter="url(#a)" xlink:href="#b"/><use fill="#FFF" xlink:href="#b"/></g><path d="M19.9 37c-.8 0-2 .6-2.8 1.3.9-1 2.1-2.6 2.1-3.6a3 3 0 00-3-3.1 3 3 0 00-3 3c0 1.1 1.2 2.8 2 3.8-.8-.8-2-1.5-2.7-1.5a3 3 0 00-3 3 3 3 0 003 3.1c1 0 2.3-1 3.3-1.9a27 27 0 01-.7 2l-1.2 2h4.5l-1.2-2-.7-2c1 .9 2.4 2 3.4 2a3 3 0 002.7-1.6 3 3 0 000-3 3 3 0 00-2.7-1.6zM32.2 14.7c-.1-1-.4-2-.9-3-.4-1-1-1.7-1.8-2.3a5 5 0 00-3.1-1 5 5 0 00-3.1 1c-.8.6-1.5 1.3-1.9 2.2-.4 1-.7 2-.9 3.1a23.8 23.8 0 000 6.5c.2 1 .5 2.1 1 3.1a5 5 0 005 3.2 5 5 0 003-1c.8-.5 1.4-1.3 1.8-2.2.5-1 .8-2 1-3 .3-2.2.3-4.4 0-6.5zm-4 5.2l-.2 2-.6 1.4c-.2.3-.6.6-1 .6s-.8-.2-1-.6c-.3-.4-.5-1-.6-1.4l-.3-2v-2-1.8c0-.7.2-1.3.3-2 .1-.5.3-1 .6-1.4a1.1 1.1 0 012 0L28 14l.2 2a28.9 28.9 0 010 3.8zM9.4 12.3l1.9 3.3 2.8-2.2v14.1h4.2v-19h-3.7z" fill="#1E1E1E" fill-rule="nonzero"/></g></svg>
