<svg xmlns="http://www.w3.org/2000/svg" viewBox="0 0 46 57"><defs><filter x="-27.6%" y="-21.4%" width="155.3%" height="142.9%" filterUnits="objectBoundingBox" id="a"><feOffset dy="1" in="SourceAlpha" result="shadowOffsetOuter1"/><feGaussianBlur stdDeviation="2" in="shadowOffsetOuter1" result="shadowBlurOuter1"/><feColorMatrix values="0 0 0 0 0 0 0 0 0 0 0 0 0 0 0 0 0 0 0.4 0" in="shadowBlurOuter1" result="shadowMatrixOuter1"/><feMerge><feMergeNode in="shadowMatrixOuter1"/><feMergeNode in="SourceGraphic"/></feMerge></filter></defs><g filter="url(#a)" transform="translate(4 3)" fill="none" fill-rule="evenodd"><rect fill="#FFF" width="38" height="49" rx="4"/><path fill="#BC3030" d="M10.852 43.556L5.43 36.069l5.423-7.486 5.434 7.486zM17.642 18.974a5.488 5.488 0 01-.43 2.195 5.15 5.15 0 01-1.234 1.745 5.738 5.738 0 01-1.93 1.159 7.328 7.328 0 01-2.563.426 7.192 7.192 0 01-2.532-.426 5.703 5.703 0 01-1.898-1.159A5.07 5.07 0 015.85 21.17a5.614 5.614 0 01-.421-2.195 4.997 4.997 0 01.25-1.661c.15-.465.375-.905.664-1.303.253-.362.57-.677.937-.93.335-.236.7-.428 1.086-.572v-.053a3.887 3.887 0 01-1.906-1.524 4.44 4.44 0 01-.664-2.492 4.95 4.95 0 01.36-1.86c.23-.6.583-1.147 1.038-1.608a5.212 5.212 0 011.774-1.12 6.841 6.841 0 012.508-.404 6.872 6.872 0 012.508.427c.674.244 1.29.617 1.813 1.097.477.454.852.999 1.102 1.6.244.591.369 1.223.367 1.86.03.875-.198 1.74-.656 2.492a3.948 3.948 0 01-1.883 1.524v.054a4.82 4.82 0 011.086.579c.36.26.676.574.937.93.287.394.506.832.649 1.295.17.54.252 1.104.242 1.67zm-4.266-.228a3.172 3.172 0 00-.524-1.868c-.3-.46-.82-.74-1.379-.74s-1.08.28-1.379.74a3.171 3.171 0 00-.523 1.898 3.223 3.223 0 00.5 1.867 1.7 1.7 0 001.41.742 1.7 1.7 0 001.41-.742 3.34 3.34 0 00.485-1.897zm-.156-7.964a2.916 2.916 0 00-.446-1.67 1.472 1.472 0 00-1.297-.655 1.432 1.432 0 00-1.29.656 2.99 2.99 0 00-.437 1.669c-.01.581.153 1.153.47 1.646.247.451.732.73 1.257.724a1.437 1.437 0 001.282-.724 2.992 2.992 0 00.46-1.646z"/></g></svg>
