<svg xmlns="http://www.w3.org/2000/svg" xmlns:xlink="http://www.w3.org/1999/xlink" viewBox="0 0 46 57"><defs><filter x="-17.1%" y="-11.2%" width="134.2%" height="126.5%" filterUnits="objectBoundingBox" id="a"><feOffset dy="1" in="SourceAlpha" result="shadowOffsetOuter1"/><feGaussianBlur stdDeviation="2" in="shadowOffsetOuter1" result="shadowBlurOuter1"/><feColorMatrix values="0 0 0 0 0 0 0 0 0 0 0 0 0 0 0 0 0 0 0.4 0" in="shadowBlurOuter1"/></filter><rect id="b" x="0" y="0" width="38" height="49" rx="4"/></defs><g fill="none" fill-rule="evenodd"><g transform="translate(4 3)"><use fill="#000" filter="url(#a)" xlink:href="#b"/><use fill="#FFF" xlink:href="#b"/></g><path d="M19.578 31.583a3.434 3.434 0 00-3.364 2.752 3.433 3.433 0 00-3.7-2.698 3.438 3.438 0 00-3.085 3.388c0 2.703 6.785 10.17 6.785 10.17S23 37.727 23 35.024a3.437 3.437 0 00-.999-2.433 3.417 3.417 0 00-2.423-1.009z" fill="#BC3030" fill-rule="nonzero"/><path d="M14.361 21.032a4.62 4.62 0 01-2.156-.474 4.572 4.572 0 01-1.546-1.28 5.446 5.446 0 01-.92-1.919 9.007 9.007 0 01-.309-2.376c-.02-.966.14-1.927.472-2.834a5.75 5.75 0 011.306-2.057 5.306 5.306 0 011.955-1.227 6.773 6.773 0 012.404-.42 6.45 6.45 0 012.404.42c.727.277 1.386.709 1.932 1.265.561.59.995 1.291 1.275 2.058.323.901.48 1.853.464 2.81.014 1.053-.138 2.101-.449 3.107-.3.91-.678 1.794-1.128 2.64L16.518 27.5h-4.816l3.656-6.623a1.302 1.302 0 01-.433.132 2.954 2.954 0 01-.564.023zm-.865-5.956c-.018.763.18 1.514.571 2.167.312.523.878.84 1.484.83a1.745 1.745 0 001.484-.846c.4-.643.594-1.393.557-2.15a3.725 3.725 0 00-.58-2.175 1.722 1.722 0 00-1.468-.83 1.698 1.698 0 00-1.477.792 3.78 3.78 0 00-.571 2.212z" fill="#BC3030"/></g></svg>
