<svg xmlns="http://www.w3.org/2000/svg" viewBox="0 0 46 57"><defs><filter x="-27.6%" y="-21.4%" width="155.3%" height="142.9%" filterUnits="objectBoundingBox" id="a"><feOffset dy="1" in="SourceAlpha" result="shadowOffsetOuter1"/><feGaussianBlur stdDeviation="2" in="shadowOffsetOuter1" result="shadowBlurOuter1"/><feColorMatrix values="0 0 0 0 0 0 0 0 0 0 0 0 0 0 0 0 0 0 0.4 0" in="shadowBlurOuter1" result="shadowMatrixOuter1"/><feMerge><feMergeNode in="shadowMatrixOuter1"/><feMergeNode in="SourceGraphic"/></feMerge></filter></defs><g filter="url(#a)" transform="translate(4 3)" fill="none" fill-rule="evenodd"><rect fill="#FFF" width="38" height="49" rx="4"/><path d="M15.9 34c-.8 0-2 .6-2.8 1.3.9-1 2.1-2.6 2.1-3.6a3 3 0 00-3-3.1 3 3 0 00-3 3c0 1.1 1.2 2.8 2 3.8-.8-.8-2-1.5-2.7-1.5a3 3 0 00-3 3 3 3 0 003 3.1c1 0 2.3-1 3.3-1.9a27 27 0 01-.7 2l-1.2 2h4.5l-1.2-2-.7-2c1 .9 2.4 2 3.4 2a3 3 0 002.7-1.6 3 3 0 000-3 3 3 0 00-2.7-1.6zM15.4 5.4l-3.6 6.4.4-.1h.6a4.5 4.5 0 013.7 1.7c.4.6.7 1.3.8 2a9.2 9.2 0 01-.1 5.2c-.3.8-.7 1.5-1.3 2.1-.5.6-1.2 1-1.9 1.3-.8.4-1.6.5-2.4.5-.9 0-1.7-.1-2.5-.4-.7-.3-1.4-.8-2-1.3a6 6 0 01-1.2-2 10 10 0 010-5.9L7 12.1l3.6-6.8h4.8zm-3.8 9.3c-.6 0-1.2.3-1.5.8-.4.7-.6 1.5-.6 2.2 0 .8.2 1.6.6 2.2a1.7 1.7 0 003 0 4 4 0 00.5-2.2c0-.7-.2-1.5-.5-2.2-.3-.5-1-.8-1.5-.8z" fill="#1E1E1E" fill-rule="nonzero"/></g></svg>
