<?xml version="1.0" encoding="iso-8859-1"?>

<!DOCTYPE svg PUBLIC "-//W3C//DTD SVG 1.1//EN" "http://www.w3.org/Graphics/SVG/1.1/DTD/svg11.dtd">
<!-- Uploaded to: SVG Repo, www.svgrepo.com, Generator: SVG Repo Mixer Tools -->
<svg version="1.1" id="_x34_" xmlns="http://www.w3.org/2000/svg" xmlns:xlink="http://www.w3.org/1999/xlink" 
	 viewBox="0 0 512 512"  xml:space="preserve">
<g>
	<g>
		<g>
			<path style="fill:#E4DC79;" d="M501.41,105.796c-10.653-22.2-31.064-42.205-58.549-58.55
				C396.59,19.516,330.153,2.114,256.478,2.114c-139.705,0-253.307,62.533-253.307,139.46c0,16.508,5.205,32.283,14.8,47.002
				c12.035,18.46,30.982,35.13,55.134,49.035c20.899,12.116,45.701,22.118,73.187,29.519c22.688,6.017,47.246,10.245,73.105,12.278
				c12.116,1.058,24.477,1.546,37.081,1.546c12.279,0,24.314-0.487,36.105-1.464c25.778-1.952,50.418-6.18,73.105-12.116
				c27.486-7.318,52.288-17.238,73.187-29.193c31.307-17.808,53.996-40.171,64.486-65.135c4.229-10.084,6.505-20.655,6.505-31.471
				C509.867,129.214,506.939,117.179,501.41,105.796z"/>
			<path style="fill:#56B076;" d="M510.924,141.006c0,5.692-0.65,11.385-1.789,16.914c-0.081,0.081-0.081,0.163-0.081,0.244
				c-6.912,31.307-32.365,59.526-70.178,81.074c-20.98,11.954-45.701,21.874-73.187,29.113
				c-22.688,6.017-47.246,10.246-73.105,12.198c-11.791,0.975-23.826,1.463-36.105,1.463c-12.604,0-24.965-0.488-37.081-1.544
				c-25.859-2.033-50.418-6.262-73.105-12.361c-27.486-7.4-52.288-17.402-73.187-29.437c-30.169-17.402-52.369-39.115-63.266-63.185
				c-5.042-11.059-7.725-22.607-7.725-34.479C2.114,63.266,116.204,0,256.478,0c70.909,0,135.07,16.182,181.259,42.122
				c32.04,18.053,55.459,40.904,66.356,66.356C508.566,118.887,510.924,129.784,510.924,141.006z"/>
		</g>
		<path style="fill:#E4DC79;stroke:#56B076;stroke-width:0.2596;stroke-miterlimit:10;" d="M256.492,260.93
			c-64.334,0-124.566-13.694-169.598-38.561c-41.072-22.681-63.691-51.376-63.691-80.805c0-29.429,22.619-58.126,63.691-80.807
			c45.032-24.867,105.264-38.561,169.598-38.561c64.336,0,124.568,13.694,169.6,38.561c41.07,22.681,63.689,51.378,63.689,80.807
			c0,29.429-22.619,58.126-63.689,80.805C381.06,247.236,320.829,260.93,256.492,260.93z"/>
		<g style="opacity:0.2;">
			<path style="fill:#FFFFFF;" d="M359.672,181.747c-0.814,0.65-1.545,1.22-2.439,1.789c-16.996,12.604-42.042,20.492-70.584,20.492
				c-39.44,0-73.024-14.8-89.776-35.699c-0.488-0.651-0.976-1.22-1.464-1.87c-0.081,0-0.081,0,0-0.081
				c-0.488-0.651-0.976-1.301-1.382-1.952c-4.554-6.669-7.319-13.742-8.132-21.225c-0.163-1.219-0.326-2.52-0.244-3.822
				c-0.081-0.893-0.081-1.87,0-2.846c0.163-3.659,0.814-7.238,1.952-10.652c0.407-1.301,0.895-2.603,1.383-3.822
				c3.009-6.994,7.806-13.499,14.149-19.111c1.464-1.382,3.09-2.683,4.717-3.903c17.321-13.336,43.261-21.549,71.804-21.549
				c26.103,0,50.499,6.748,68.714,17.808l-4.066-31.227c-0.894-0.325-1.789-0.569-2.764-0.893
				c-19.192-6.099-40.741-9.596-63.185-9.596c-50.336,0-95.631,17.971-119.132,45.457c-1.138,1.301-2.195,2.603-3.171,3.903
				c-4.554,5.936-8.051,12.361-10.328,19.111c-0.488,1.219-0.894,2.52-1.22,3.822c-1.057,3.415-1.707,6.993-2.033,10.652
				c-0.081,0.976-0.162,1.871-0.081,2.846c-0.162,1.301-0.244,2.521-0.162,3.822c0.081,7.238,1.545,14.312,4.147,21.225
				c0.407,1.3,0.976,2.602,1.626,3.903c2.359,5.448,5.53,10.816,9.433,15.857c23.663,30.902,72.536,53.101,131.085,53.101
				c28.624,0,54.809-5.529,76.439-15.044L359.672,181.747z"/>
			<polygon style="fill:#FFFFFF;" points="286.69,125.912 107.795,125.912 123.192,102.949 297.662,102.949 			"/>
			<polygon style="fill:#FFFFFF;" points="269.372,168.29 102.174,168.29 118.402,143.211 281.279,143.211 			"/>
		</g>
		<g>
			<path style="fill:#56B076;" d="M357.232,183.535l-0.732-5.693c-17.077,13.581-43.099,22.281-73.024,22.281
				c-36.919,0-68.796-12.928-86.442-31.795c-0.569-0.57-1.139-1.22-1.626-1.87c-0.081,0-0.081,0,0-0.081
				c-0.651-0.651-1.22-1.301-1.708-1.952c-5.285-6.587-8.864-13.742-10.409-21.225c-0.244-1.3-0.488-2.52-0.569-3.822
				c-0.244-2.196-0.325-4.472-0.244-6.749c0.081-2.276,0.407-4.553,0.976-6.749c0.162-1.301,0.569-2.521,0.976-3.822
				c2.195-6.913,6.18-13.337,11.628-19.111c1.219-1.382,2.521-2.602,3.903-3.903c17.158-15.45,45.294-25.371,76.521-25.371
				c26.184,0,50.499,6.749,68.714,17.728l-3.659-28.217l-0.407-3.01c-19.923-6.668-42.448-10.409-65.949-10.409
				c-52.694,0-99.778,19.599-122.303,49.28c-0.894,1.301-1.871,2.521-2.684,3.903c-4.066,6.018-7.075,12.361-8.945,19.111
				c-0.326,1.219-0.651,2.52-0.895,3.822c-0.488,2.196-0.813,4.473-1.057,6.749c-0.244,2.277-0.325,4.472-0.244,6.749
				c0,1.301,0.081,2.603,0.163,3.822c0.569,7.32,2.521,14.393,5.611,21.225c0.488,1.3,1.138,2.602,1.87,3.903
				c2.765,5.529,6.424,10.816,10.734,15.857c24.639,28.868,71.885,49.198,127.914,49.198c28.624,0,54.809-5.529,76.44-15.044
				L357.232,183.535z"/>
			<polygon style="fill:#56B076;" points="283.523,122.041 104.628,122.041 120.025,99.078 294.495,99.078 			"/>
			<polygon style="fill:#56B076;" points="266.205,164.42 99.008,164.42 115.235,139.341 278.112,139.341 			"/>
		</g>
		<g>
			<path style="fill:#4FA16C;" d="M73.105,235.091v80.911c-2.602-1.463-5.204-3.008-7.725-4.553
				c-25.941-15.857-45.376-34.966-56.11-56.11C3.252,243.386,0,230.781,0,217.771v-80.912c0,13.418,3.415,26.347,9.839,38.626
				c2.359,4.472,5.042,8.782,8.132,13.092C30.575,206.061,49.523,221.837,73.105,235.091z"/>
			<path style="fill:#CDD15C;" d="M73.126,235.085v80.904c21.005,11.774,45.736,21.536,73.146,28.7v-80.904
				C118.862,256.62,94.131,246.859,73.126,235.085z"/>
			<path style="fill:#4FA16C;" d="M146.272,263.784v80.904c22.745,5.945,47.329,10.098,73.145,12.133v-80.904
				C193.601,273.882,169.017,269.729,146.272,263.784z"/>
			<path style="fill:#CDD15C;" d="M255.99,277.357c-12.416,0-24.623-0.498-36.573-1.44v80.904c11.949,0.942,24.156,1.44,36.573,1.44
				c12.417,0,24.624-0.498,36.573-1.44v-80.904C280.614,276.86,268.407,277.357,255.99,277.357z"/>
			<path style="fill:#4FA16C;" d="M292.563,275.918v80.904c25.816-2.035,50.4-6.188,73.146-12.133v-80.904
				C342.963,269.729,318.379,273.882,292.563,275.918z"/>
			<path style="fill:#CDD15C;" d="M365.709,344.689c27.409-7.164,52.141-16.925,73.146-28.699v-80.904
				c-21.005,11.774-45.736,21.536-73.146,28.7V344.689z"/>
			<path style="fill:#4FA16C;" d="M438.854,235.085v80.904C484.073,290.642,512,255.97,512,217.782v-80.904
				C512,175.066,484.073,209.738,438.854,235.085z"/>
		</g>
	</g>
	<path style="opacity:0.06;fill:#040000;" d="M509.143,157.868c1.133-5.513,1.781-11.187,1.781-16.862
		c0-11.222-2.358-22.119-6.831-32.527c-10.897-25.453-34.316-48.304-66.356-66.356C391.548,16.182,327.388,0,256.479,0
		c-0.161,0-0.319,0.007-0.479,0.007v155.218c0.01-0.037,0.022-0.074,0.038-0.11c-0.012,0.039-0.025,0.077-0.038,0.116v203.031
		c12.412,0,24.617-0.498,36.564-1.44c25.815-2.036,50.399-6.188,73.145-12.133c27.409-7.164,52.14-16.925,73.145-28.7
		C484.073,290.642,512,255.971,512,217.781v-80.904C512,144.01,511.022,151.019,509.143,157.868z M509.031,158.24
		c0.006-0.026,0.018-0.05,0.023-0.075c0-0.053,0.031-0.105,0.053-0.157C509.084,158.085,509.053,158.161,509.031,158.24z"/>
</g>
</svg>