<svg xmlns="http://www.w3.org/2000/svg" xmlns:xlink="http://www.w3.org/1999/xlink" width="24" height="24" viewBox="0 0 24 24">
    <defs>
        <path id="a" d="M0 0h12.523v16.353c0 2.432-1.339 3.647-4.015 3.647H4.015C1.338 20 0 18.785 0 16.353V0zm11.346 16.353V3.708H1.176v12.645c0 2.05 1.135 2.47 2.839 2.47h4.493c1.704 0 2.838-.42 2.838-2.47zM1.176 2.827h10.17v-1.65H1.176v1.65zM8.8 9.132H6.998V7.61c0-.165-.031-.276-.093-.333-.063-.057-.176-.085-.342-.085h-.73c-.165 0-.28.028-.341.085-.062.057-.093.168-.093.333v6.366c0 .165.03.277.093.333.062.057.176.086.342.086h.729c.166 0 .28-.029.342-.086.062-.056.093-.168.093-.333v-1.49h1.8v1.676c0 1.024-.564 1.537-1.692 1.537H5.29c-1.128 0-1.692-.513-1.692-1.537V7.424c0-1.024.564-1.537 1.692-1.537h1.816c1.128 0 1.693.513 1.693 1.537v1.708z"/>
    </defs>
    <g fill="none" fill-rule="evenodd" transform="translate(6 2)">
        <mask id="b" fill="#fff">
            <use xlink:href="#a"/>
        </mask>
        <use fill="#FFF" xlink:href="#a"/>
        <g fill="#FFF" mask="url(#b)">
            <path d="M-6-2h24v24H-6z"/>
        </g>
    </g>
</svg>