<?xml version="1.0" encoding="iso-8859-1"?>
<!-- Uploaded to: SVG Repo, www.svgrepo.com, Generator: SVG Repo Mixer Tools -->
<svg height="800px" width="800px" version="1.1" id="Layer_1" xmlns="http://www.w3.org/2000/svg" xmlns:xlink="http://www.w3.org/1999/xlink" 
	 viewBox="0 0 512 512" xml:space="preserve">
<path style="fill:#EFF2FA;" d="M379.586,512H132.414c-14.626,0-26.483-11.857-26.483-26.483V26.483
	C105.931,11.857,117.788,0,132.414,0h247.172c14.626,0,26.483,11.857,26.483,26.483v459.034
	C406.069,500.143,394.212,512,379.586,512z"/>
<g>
	<path style="fill:#FF6464;" d="M194.207,241.075c0-18.824,15.171-34.083,33.887-34.083c9.276,0,17.674,3.754,23.79,9.83
		c2.268,2.252,5.964,2.252,8.232,0c6.116-6.076,14.515-9.83,23.79-9.83c18.716,0,33.887,15.26,33.887,34.083l0,0
		c0,35.201-45.329,67.224-58.339,75.691c-2.103,1.368-4.803,1.368-6.906,0C239.535,308.299,194.207,276.277,194.207,241.075"/>
	<path style="fill:#FF6464;" d="M132.414,141.54c0-10.756,8.67-19.476,19.363-19.476c5.301,0,10.1,2.145,13.594,5.617
		c1.295,1.288,3.409,1.288,4.704,0c3.495-3.471,8.295-5.617,13.594-5.617c10.695,0,19.363,8.719,19.363,19.476l0,0
		c0,20.115-25.902,38.414-33.337,43.252c-1.202,0.782-2.744,0.782-3.947,0C158.316,179.955,132.414,161.655,132.414,141.54"/>
	<path style="fill:#FF6464;" d="M202.321,93.626l-26.483-61.793l-0.007,0.002c-0.862-2.01-2.46-3.71-4.63-4.64
		c-4.483-1.922-9.672,0.156-11.591,4.637l-26.483,61.793c-1.921,4.481,0.156,9.671,4.637,11.591
		c1.134,0.486,2.313,0.716,3.473,0.716c3.425,0,6.684-2.005,8.118-5.353l4.328-10.097h28.083l4.328,10.098
		c1.434,3.348,4.693,5.353,8.118,5.353c1.16,0,2.339-0.23,3.473-0.716C202.165,103.297,204.241,98.108,202.321,93.626z
		 M161.249,72.828l6.475-15.107l6.475,15.107H161.249z"/>
	<path style="fill:#FF6464;" d="M379.586,370.46c0,10.756-8.67,19.476-19.363,19.476c-5.301,0-10.1-2.145-13.595-5.617
		c-1.295-1.288-3.409-1.288-4.704,0c-3.495,3.471-8.294,5.617-13.595,5.617c-10.695,0-19.363-8.719-19.363-19.476l0,0
		c0-20.115,25.902-38.414,33.337-43.252c1.202-0.782,2.744-0.782,3.947,0C353.684,332.045,379.586,350.345,379.586,370.46"/>
	<path style="fill:#FF6464;" d="M374.236,406.782c-4.483-1.921-9.672,0.156-11.591,4.637l-4.328,10.099h-28.083l-4.328-10.098
		c-1.92-4.481-7.11-6.557-11.591-4.637c-4.481,1.921-6.557,7.111-4.637,11.592l26.483,61.793l0.007-0.003
		c0.862,2.01,2.46,3.71,4.629,4.64c1.134,0.486,2.313,0.716,3.473,0.716c3.425,0,6.684-2.005,8.118-5.353l26.483-61.793
		C380.792,413.892,378.717,408.703,374.236,406.782z M350.751,439.172l-6.475,15.107l-6.475-15.107H350.751z"/>
</g>
</svg>