<svg xmlns="http://www.w3.org/2000/svg" width="20" height="12" viewBox="0 0 24 14">
    <path fill="#FFF" fill-rule="evenodd" d="M3.802 5.303c-.536.493-1.221 1.007-1.984.977C.45 6.226-.29 4.273.107 3.243.4 2.484.814 2.03 1.232 1.786c.282-.164.6-.246.89-.39a.609.609 0 0 0 .232-.167c.16-.128.184-.317.073-.565-.22-.414-.33-.634-.33-.662 0-.041.554.55.587.772.033.221.026.395-.074.521-.514.652-1.588.649-1.993 1.937-.327 1.04.658 2.633 1.836 1.9.808-.504.952-.718 1.372-1.295l.016-.035c.58-.827 1.158-2.565 4.179-2.896 4.178-.248 5.709 1.986 6.612 2.323.903.337 1.248-.213 1.869-.585.496-.331.662-.373 1.158-.828.207-.124-.496.042-.207-.165.331-.248.703-.414.91-.62.124-.083.414.165.704 0 .29-.166.372-.208.91-.29.538-.042 1.324-.166 1.903.538.91.33 1.406.33 1.862.413.455.083.206.373.04.414-.371.538-1.199.91-2.812 1.034-1.324-.124-1.862.786-2.896 1.903-1.159 1.283-1.614 1.614-2.276 2.855-.703.703-1.49.414-2.4.703-.661.207-.744.166-1.24.538-.414.538-.69 1.175-1.572 2.44-.042.125-.207.25-.331.29-.125.042-.22.096-.125.166.58.29.787.455 1.324.703.21.073.388-.107.58-.041.346.12.413.29.496.414-.207.165-.993.29-1.365.248-.124.041 0-.083-.166-.083-.165-.083-.267-.166-.538-.33-.102-.063-.082-.042-.206-.125-.29-.083-.828-.29-.87-.33-.04-.042-.206 0-.206.289-.372-.166-.952-.704-1.365-1.2-.29.165-.497.455-1.117.58-.29-.042-.622.08-1.448.165-.374.038-.207-.125-.745.082-.703.249-.62.166-.869.124-.083-.124.124-.413.248-.537.207 0 .284.003.455-.083.083-.083.125-.331.456-.248.33.082.455.124.91-.207.253-.035.33 0 .496-.083.62-.041.869-.29 1.034-.372-.124-.207-.413-.373-.744-.745-.414-.414-.745-.455-1.159-.869-.041-.083.06-.192.207-.372.662-.662 1.324-1.076 1.283-1.448-.785.124-2.6 0-3.018-2.264zM9.088 9.6c.497-.386.827-.703.993-.951.028-.304.193-.47.496-.497.033-.5.035-.737.008-.71-.042.042-.373-.496-.373-.454 0 .041-1.034.869-1.158.869-.083 0-.072.58.034 1.743zm-1.524-.71l-.579.456c.138.524.414.869.828 1.034.248-.248.165-.745-.249-1.49zm1.697 1.904l.041.372c.496 0 .814-.234.952-.703.206-.703.303-.625.165-.58-.239.08-.625.384-1.158.91z"/>
</svg> 