<svg id="soccer" xmlns="http://www.w3.org/2000/svg" viewBox="0 0 20 20"><defs><style>.cls-1{fill:#fff;}</style></defs><title>soccer</title><path class="cls-1" d="M12.5.3A11.34,11.34,0,0,0,10,0,11.34,11.34,0,0,0,7.5.3l2.5.9Z"/><path class="cls-1" d="M14.3,19.1a9.83,9.83,0,0,0,3.7-3l-2.4.9Z"/><path class="cls-1" d="M19.3,6.3a7.19,7.19,0,0,0-1.2-2.1V6.8L20,8.9A7.71,7.71,0,0,0,19.3,6.3Z"/><path class="cls-1" d="M2,16.1a9.83,9.83,0,0,0,3.7,3l-1.3-2Z"/><path class="cls-1" d="M1.8,4.2A11.78,11.78,0,0,0,.7,6.1,12.76,12.76,0,0,0,0,8.9L1.8,6.7Z"/><polygon class="cls-1" points="7 9.4 8.2 12.9 11.8 12.9 13 9.4 10 7.3 7 9.4"/><path class="cls-1" d="M14.1,16.6l-2-2.1H7.9l-2,2.1,2,3.2A14.92,14.92,0,0,0,10,20a14.92,14.92,0,0,0,2.1-.2Z"/><path class="cls-1" d="M19.2,14a.1.1,0,0,1,.1-.1,9,9,0,0,0,.7-2.7L17.3,8,14.5,9.6l-1.3,3.8,2,2.1Z"/><path class="cls-1" d="M.8,14a.1.1,0,0,0-.1-.1A13.43,13.43,0,0,1,0,11.2L2.7,8,5.5,9.6l1.3,3.8-2,2.1Z"/><path class="cls-1" d="M5.5,1.1A16.44,16.44,0,0,0,3.3,2.5V6.6L6,8.2,9.2,5.9V2.5Z"/><path class="cls-1" d="M14.5,1.1,10.7,2.5V5.9l3.2,2.3,2.7-1.6V2.5A11,11,0,0,0,14.5,1.1Z"/></svg>