<svg id="baseball" xmlns="http://www.w3.org/2000/svg" viewBox="0 0 56.7 56.7"><defs><style>.cls-1{fill:#fff;}</style></defs><title>tennis</title><path class="cls-1" d="M56.7,49.7,44.2,37.2h0l-4.1-4.1a4.76,4.76,0,0,1-1.2-4.7h0a18.66,18.66,0,0,0,.4-2.5,9.28,9.28,0,0,1-2.4.3,4.87,4.87,0,0,1-1.2-.1h0L20.4,10.8l4.4-4.4a20,20,0,0,1,3.7,2.8,9.92,9.92,0,0,1,2.6-2.4A24,24,0,0,0,15.1,0,15.1,15.1,0,0,0,4.3,4.2C-2.5,10.9-1,23.3,7.5,31.8c4.9,4.9,11.1,7.5,16.8,7.5a16.11,16.11,0,0,0,4.4-.6A4.76,4.76,0,0,1,33,39.9L49.4,56.3h0l.2.2,5.6-5.6,1.5-1.2ZM26.2,20.5l-5.4,5.4L13,18.2l5.4-5.4ZM15.1,3.5a16.33,16.33,0,0,1,7.1,1.6L18.5,8.8,13.4,3.7A7.93,7.93,0,0,1,15.1,3.5Zm-5,.9,6.3,6.3L11,16.2,4.7,9.8a11,11,0,0,1,2-3.1A11.34,11.34,0,0,1,10.1,4.4ZM3.6,16.9a14,14,0,0,1,.1-4.1L9,18.2l-4,4A19.78,19.78,0,0,1,3.6,16.9Zm2.8,7.9L11,20.2,18.8,28l-4.7,4.7A24.72,24.72,0,0,1,10,29.4,26,26,0,0,1,6.4,24.8Zm10.3,9.3L20.8,30l5.7,5.7a15,15,0,0,1-2.2.2A19.19,19.19,0,0,1,16.7,34.1Zm16-1.4a10.29,10.29,0,0,1-3.1,2l-6.8-6.8,5.4-5.4,6.7,6.7A9.88,9.88,0,0,1,32.7,32.7Z"/><circle class="cls-1" cx="36.9" cy="15.6" r="7.1"/></svg>