<?xml version="1.0" encoding="iso-8859-1"?>
<!-- Uploaded to: SVG Repo, www.svgrepo.com, Generator: SVG Repo Mixer Tools -->
<svg height="800px" width="800px" version="1.1" id="Layer_1" xmlns="http://www.w3.org/2000/svg" xmlns:xlink="http://www.w3.org/1999/xlink" 
	 viewBox="0 0 512 512" xml:space="preserve">
<path style="fill:#FFC36E;" d="M0,238.345v35.31c0,43.878,114.615,79.448,256,79.448s256-35.571,256-79.448v-35.31H0z"/>
<g>
	<path style="fill:#E1B464;" d="M123.586,238.345h-17.655v99.659c5.722,1.287,11.59,2.517,17.655,3.656V238.345z"/>
	<path style="fill:#E1B464;" d="M158.897,238.345h-17.655v106.324c5.768,0.899,11.649,1.737,17.655,2.503V238.345z"/>
	<path style="fill:#E1B464;" d="M194.207,238.345h-17.655v110.838c5.8,0.586,11.681,1.117,17.655,1.576V238.345z"/>
	<path style="fill:#E1B464;" d="M88.276,238.345H70.621v90.069c5.615,1.829,11.505,3.576,17.655,5.235V238.345z"/>
	<path style="fill:#E1B464;" d="M459.034,238.345v83.677c6.403-2.584,12.299-5.293,17.655-8.115v-75.562H459.034z"/>
	<path style="fill:#E1B464;" d="M229.517,238.345h-17.655v113.558c5.828,0.314,11.7,0.588,17.655,0.778V238.345z"/>
	<path style="fill:#E1B464;" d="M35.31,238.345v75.562c5.356,2.823,11.253,5.532,17.655,8.115v-83.677H35.31z"/>
	<path style="fill:#E1B464;" d="M300.138,238.345h-17.655v114.336c5.955-0.19,11.827-0.463,17.655-0.778V238.345z"/>
	<path style="fill:#E1B464;" d="M264.828,238.345h-17.655v114.689c2.936,0.03,5.867,0.07,8.828,0.07c2.961,0,5.891-0.039,8.828-0.07
		V238.345z"/>
	<path style="fill:#E1B464;" d="M17.655,302.642v-64.297H0v35.31C0,283.887,6.302,293.658,17.655,302.642z"/>
	<path style="fill:#E1B464;" d="M494.345,302.642C505.698,293.657,512,283.887,512,273.654v-35.31h-17.655V302.642z"/>
	<path style="fill:#E1B464;" d="M441.379,238.345h-17.655v95.304c6.151-1.658,12.04-3.405,17.655-5.235V238.345z"/>
	<path style="fill:#E1B464;" d="M335.448,238.345h-17.655v112.414c5.974-0.459,11.855-0.989,17.655-1.576V238.345z"/>
	<path style="fill:#E1B464;" d="M370.759,238.345h-17.655v108.826c6.006-0.765,11.887-1.602,17.655-2.503V238.345z"/>
	<path style="fill:#E1B464;" d="M406.069,238.345h-17.655v103.316c6.066-1.139,11.933-2.369,17.655-3.656V238.345z"/>
</g>
<ellipse style="fill:#FFD782;" cx="256" cy="238.345" rx="256" ry="79.448"/>
<ellipse style="fill:#FFE3A8;" cx="256" cy="238.345" rx="220.69" ry="52.966"/>
<path style="fill:#FFC36E;" d="M256,300.138c-114.051,0-229.517-21.224-229.517-61.793S141.949,176.552,256,176.552
	s229.517,21.224,229.517,61.793S370.051,300.138,256,300.138z M256,189.793c-133.299,0-203.034,31.606-203.034,48.552
	S122.701,286.897,256,286.897s203.034-31.606,203.034-48.552S389.299,189.793,256,189.793z"/>
<path style="fill:#E1B464;" d="M335.448,247.765c0-7.625-18.357-12.298-55.069-14.266l-12.922-0.621v-13.106
	c9.865,0.506,17.65,1.939,21.535,3.848c3.287,1.615,9.993,2.641,17.361,2.641c15.012,0,24.75-4.055,16.758-7.168
	c-10.434-4.065-29.99-6.79-55.652-7.488v-2.263c0-1.783-5.898-3.228-13.174-3.228c-7.276,0-13.174,1.446-13.174,3.228v2.263
	c-40.733,1.086-64.558,6.548-64.558,14.903c0,7.309,18.499,12.193,53.062,14.161l11.496,0.664v13.773
	c-11.64-0.531-20.497-1.992-24.867-4.045c-3.396-1.596-9.992-2.626-17.337-2.626h-1.938c-15.022,0-24.648,4.042-16.754,7.174
	c10.753,4.266,31.974,6.954,60.896,7.549v1.522c0,1.783,5.898,3.228,13.174,3.228s13.174-1.446,13.174-3.228v-1.555
	C310.944,262.025,335.448,256.525,335.448,247.765z M217.996,225.629c0-3.066,9.454-5.387,23.112-5.908v11.8
	C226.014,230.511,217.996,228.493,217.996,225.629z M267.457,255.23v-12.676c18.674,1.03,27.406,3.068,27.406,6.336
	C294.863,252.45,284.755,254.785,267.457,255.23z"/>
<g>
	<path style="fill:#FFFFFF;" d="M449.346,252.255c-15.236-3.474-27.231-15.468-30.705-30.706c-0.262-1.148-1.781-1.148-2.042,0
		c-3.474,15.236-15.468,27.231-30.705,30.706c-1.148,0.262-1.148,1.781,0,2.042c15.236,3.474,27.231,15.467,30.705,30.705
		c0.262,1.148,1.781,1.148,2.042,0c3.474-15.238,15.468-27.231,30.705-30.705C450.494,254.036,450.494,252.516,449.346,252.255z"/>
	<path style="fill:#FFFFFF;" d="M396.543,296.426c-9.274-2.402-16.577-9.705-18.979-18.979c-0.242-0.931-1.447-0.931-1.688,0
		c-2.402,9.275-9.705,16.577-18.979,18.979c-0.931,0.242-0.931,1.447,0,1.688c9.275,2.402,16.577,9.704,18.979,18.979
		c0.242,0.931,1.447,0.931,1.688,0c2.402-9.276,9.705-16.577,18.979-18.979C397.474,297.874,397.474,296.668,396.543,296.426z"/>
</g>
</svg>