<svg id="svg2" xmlns="http://www.w3.org/2000/svg" viewBox="0 0 950.84 89.58"><defs><style>.cls-1{fill:#1d1b17;}</style></defs><title>powered_by_betfair</title><g id="g10"><g id="g12"><path id="path14" class="cls-1" d="M603,68.33c0-14.48,9.27-14.74,21.76-14.74h1.42c12.19,0,18.86,2.05,18.86,16.07v9.76c0,11.74-3,16.74-19.3,16.74h-3.11C607.25,96.14,603,91.9,603,80.21Zm0,31.13h.25c3.83,5.06,10.89,7.67,19.56,7.67h4.48c18.14,0,31.41-4.62,31.4-25.53V68.83c0-19.35-8.54-26.23-30.83-26.23H621c-9.74,0-15.15,3.3-17.7,6.87H603V18.55H589.39v86.6H603V99.46" transform="translate(-26.67 -17.54)"/><path id="path16" class="cls-1" d="M824.09,44.14H805.78V38.55c0-5.33,3.49-9.62,10.94-9.62h13.6V18.54H812.23c-10.93,0-20.11,5.69-20.11,20.06v5.53h-7.34v11h7.34v52h13.65v-52h18.32v-11" transform="translate(-26.67 -17.54)"/><path id="path18" class="cls-1" d="M745.25,87c0,14.38,9.18,20.08,20.12,20.08h16.94v-11H768.7c-7.44,0-9.8-3.72-9.8-9.06v-32h18.33v-11H758.89V18.54H745.26V44.14h-7.35v11h7.35V87" transform="translate(-26.67 -17.54)"/><path id="path20" class="cls-1" d="M902.38,31.4H916V17.54H902.38V31.4" transform="translate(-26.67 -17.54)"/><path id="path22" class="cls-1" d="M902.37,107.11H916V42.6H902.38v64.52" transform="translate(-26.67 -17.54)"/><path id="path24" class="cls-1" d="M679.19,67.21c0-12.39,5.77-13.63,19.85-13.63h2.76c15.84,0,17.88,4,17.88,12.13v3.46l-40.5,0v-2Zm14.88,39.91h12.27c16.52,0,24.08-5.25,26-14.42L720.21,89c-2,5.65-6.87,7.13-17.57,7.13h-3.15c-17.47,0-20.3-2.21-20.32-16h54.16V68.21c0-21.59-11.22-25.61-29.14-25.61h-6.67c-14.19,0-31.39,2.48-31.39,24.46V82.29c0,21.35,14.91,24.84,27.94,24.82" transform="translate(-26.67 -17.54)"/><path id="path26" class="cls-1" d="M876.62,87.84c0,6.06-4.15,8.3-20.31,8.3h-3.65c-13.73,0-15.47-2.65-15.47-7.88v-3.4c0-6.06,3.42-8.35,14.79-8.35h6.07c10.36,0,18.56,2,18.56,8.82v2.5Zm-17-45.24h-5.1c-18.5,0-26.52,5.69-27,14.22l13,4.31c.6-5.83,7.29-7.55,17.43-7.55,15.08,0,18.65.87,18.65,11.77v5.92h-.27c-3.41-4.55-8.06-5.72-19.88-5.72h-5.33c-17.42,0-27.56,4.34-27.56,18.12v3.94c0,11.38,4.35,19.5,22.53,19.5h13.24c13.16,0,14.48-2.16,17.08-5.93h.21v5.91h13.63V65.63c0-18.06-12-23-30.59-23" transform="translate(-26.67 -17.54)"/><path id="path28" class="cls-1" d="M957.63,42.6c-6.06,0-12.24,2.3-16.07,8.57h-.49V42.6H928.14v64.51h13.65V68.3c0-7.83,4.5-14.72,15.09-14.72,7.57,0,11.23,2.06,12,4.21l8.59-5.8c-2.12-5.87-7.81-9.39-19.89-9.39" transform="translate(-26.67 -17.54)"/><path id="path30" class="cls-1" d="M564.26,18.76H528.94V36.49H510.07l36.54,42.68,36.55-42.68H564.26V18.76" transform="translate(-26.67 -17.54)"/><path id="path32" class="cls-1" d="M463.5,89h18.88v17.74H517.7V89h18.89L500.06,46.31,463.5,89" transform="translate(-26.67 -17.54)"/><path d="M37.67,66.72V87.53h-11V28.4H45.93a33.77,33.77,0,0,1,10.26,1.39,19.79,19.79,0,0,1,7.16,3.88,15.21,15.21,0,0,1,4.17,6,22.23,22.23,0,0,1-.08,15.48,16.34,16.34,0,0,1-4.29,6.15,20,20,0,0,1-7.16,4,31.85,31.85,0,0,1-10.06,1.43Zm0-8.59h8.26a16.54,16.54,0,0,0,5.27-.76,9.81,9.81,0,0,0,3.72-2.17,8.89,8.89,0,0,0,2.21-3.44,13.14,13.14,0,0,0,.74-4.52A11.93,11.93,0,0,0,57.13,43a8.49,8.49,0,0,0-2.21-3.27,9.83,9.83,0,0,0-3.72-2.07,17.45,17.45,0,0,0-5.27-.72H37.67Z" transform="translate(-26.67 -17.54)"/><path d="M93.53,44.92a23,23,0,0,1,8.53,1.51,18.4,18.4,0,0,1,6.52,4.29,19,19,0,0,1,4.17,6.79,25.83,25.83,0,0,1,1.47,9,26,26,0,0,1-1.47,9,19.43,19.43,0,0,1-4.17,6.83,18.13,18.13,0,0,1-6.52,4.33,24.83,24.83,0,0,1-17.07,0,18.28,18.28,0,0,1-6.56-4.33,19.5,19.5,0,0,1-4.21-6.83,25.61,25.61,0,0,1-1.49-9,25.49,25.49,0,0,1,1.49-9,19.08,19.08,0,0,1,4.21-6.79A18.56,18.56,0,0,1,85,46.44,23.15,23.15,0,0,1,93.53,44.92Zm0,35.45q5.23,0,7.75-3.52t2.51-10.3q0-6.79-2.51-10.34t-7.75-3.56q-5.32,0-7.85,3.58T83.14,66.55q0,6.75,2.54,10.28T93.53,80.37Z" transform="translate(-26.67 -17.54)"/><path d="M117,45.58h8a3.33,3.33,0,0,1,1.92.53,2.29,2.29,0,0,1,1,1.35l6,22.41q.49,1.84.8,3.6t.59,3.52q.45-1.76,1-3.52t1.08-3.6l7-22.49a2.54,2.54,0,0,1,1-1.35A2.86,2.86,0,0,1,147,45.5h4.46a3.07,3.07,0,0,1,1.84.53,2.54,2.54,0,0,1,1,1.35l6.87,22.9q.53,1.76,1,3.41T163,77q.29-1.76.63-3.52t.88-3.64l6.22-22.41a2.28,2.28,0,0,1,1-1.35,3.11,3.11,0,0,1,1.8-.53h7.65l-13.29,42h-8.14q-1.31,0-1.88-1.8l-7.56-24.25q-.37-1.19-.67-2.39t-.51-2.39q-.25,1.23-.53,2.43t-.65,2.43l-7.65,24.17a2.22,2.22,0,0,1-2.21,1.8h-7.73Z" transform="translate(-26.67 -17.54)"/><path d="M204.13,44.92a20.37,20.37,0,0,1,7.3,1.27,16,16,0,0,1,5.75,3.7,16.92,16.92,0,0,1,3.76,6,22.55,22.55,0,0,1,1.35,8.08,14.74,14.74,0,0,1-.1,1.9,3.05,3.05,0,0,1-.37,1.19,1.49,1.49,0,0,1-.72.61,3.05,3.05,0,0,1-1.15.18H194q.45,6.46,3.48,9.49a10.83,10.83,0,0,0,8,3,13.88,13.88,0,0,0,4.23-.57,19.86,19.86,0,0,0,3.11-1.27q1.33-.7,2.33-1.27a3.91,3.91,0,0,1,1.94-.57,2.19,2.19,0,0,1,1.06.25,2.35,2.35,0,0,1,.78.7l2.94,3.68a16.82,16.82,0,0,1-3.76,3.29,21.11,21.11,0,0,1-4.35,2.13,23.81,23.81,0,0,1-4.62,1.12,33,33,0,0,1-4.56.33,22.42,22.42,0,0,1-8.14-1.45,18.2,18.2,0,0,1-6.54-4.29,20.14,20.14,0,0,1-4.38-7A27.22,27.22,0,0,1,184,65.65a23.22,23.22,0,0,1,1.39-8.08,19.42,19.42,0,0,1,4-6.58,18.78,18.78,0,0,1,6.34-4.44A20.88,20.88,0,0,1,204.13,44.92Zm.2,7.24a9.34,9.34,0,0,0-6.91,2.49,12.31,12.31,0,0,0-3.19,7.07h19a12.59,12.59,0,0,0-.53-3.7A8.54,8.54,0,0,0,211,55a7.74,7.74,0,0,0-2.78-2.06A9.47,9.47,0,0,0,204.34,52.16Z" transform="translate(-26.67 -17.54)"/><path d="M230.51,87.53v-42h5.93a3.18,3.18,0,0,1,2.17.57,3.3,3.3,0,0,1,.82,2l.61,5.07A19.92,19.92,0,0,1,245.31,47a11.1,11.1,0,0,1,6.79-2.25,8.77,8.77,0,0,1,5.15,1.43l-1.31,7.56a1.56,1.56,0,0,1-.53,1,1.8,1.8,0,0,1-1.1.31,6.88,6.88,0,0,1-1.68-.29,11.26,11.26,0,0,0-2.82-.29,8.56,8.56,0,0,0-5.4,1.74,13.38,13.38,0,0,0-3.8,5.09V87.53Z" transform="translate(-26.67 -17.54)"/><path d="M281.25,44.92a20.37,20.37,0,0,1,7.3,1.27,16,16,0,0,1,5.75,3.7,16.92,16.92,0,0,1,3.76,6,22.55,22.55,0,0,1,1.35,8.08,14.74,14.74,0,0,1-.1,1.9,3.05,3.05,0,0,1-.37,1.19,1.49,1.49,0,0,1-.72.61,3.05,3.05,0,0,1-1.15.18H271.15q.45,6.46,3.48,9.49a10.83,10.83,0,0,0,8,3,13.88,13.88,0,0,0,4.23-.57A19.86,19.86,0,0,0,290,78.49q1.33-.7,2.33-1.27a3.91,3.91,0,0,1,1.94-.57,2.19,2.19,0,0,1,1.06.25,2.35,2.35,0,0,1,.78.7L299,81.27a16.82,16.82,0,0,1-3.76,3.29,21.11,21.11,0,0,1-4.35,2.13,23.81,23.81,0,0,1-4.62,1.12,33,33,0,0,1-4.56.33,22.42,22.42,0,0,1-8.14-1.45,18.2,18.2,0,0,1-6.54-4.29,20.14,20.14,0,0,1-4.38-7,27.22,27.22,0,0,1-1.59-9.71,23.22,23.22,0,0,1,1.39-8.08,19.42,19.42,0,0,1,4-6.58,18.78,18.78,0,0,1,6.34-4.44A20.88,20.88,0,0,1,281.25,44.92Zm.2,7.24a9.34,9.34,0,0,0-6.91,2.49,12.31,12.31,0,0,0-3.19,7.07h19a12.59,12.59,0,0,0-.53-3.7,8.54,8.54,0,0,0-1.64-3,7.74,7.74,0,0,0-2.78-2.06A9.47,9.47,0,0,0,281.45,52.16Z" transform="translate(-26.67 -17.54)"/><path d="M337.15,87.53a2.48,2.48,0,0,1-2.58-1.84l-.82-4A25.12,25.12,0,0,1,331,84.3a17.33,17.33,0,0,1-3.09,2,16.07,16.07,0,0,1-3.56,1.33,17.09,17.09,0,0,1-4.11.47A13.66,13.66,0,0,1,309,82.56a19.87,19.87,0,0,1-3.19-6.73,33.94,33.94,0,0,1-1.12-9.16A28.59,28.59,0,0,1,306,58a21.09,21.09,0,0,1,3.64-7,17,17,0,0,1,5.68-4.6,16.4,16.4,0,0,1,7.44-1.66,14.56,14.56,0,0,1,6,1.12,15.77,15.77,0,0,1,4.46,3V26.77h10.1V87.53Zm-13.45-7.4A10.33,10.33,0,0,0,329,78.82a15.89,15.89,0,0,0,4.17-3.72V56.29a9.94,9.94,0,0,0-3.74-2.94,11,11,0,0,0-4.35-.86,9.79,9.79,0,0,0-4.15.86,8.12,8.12,0,0,0-3.15,2.6,12.73,12.73,0,0,0-2,4.42,25.35,25.35,0,0,0-.69,6.32,28,28,0,0,0,.59,6.24,12.26,12.26,0,0,0,1.7,4.17,6.46,6.46,0,0,0,2.7,2.33A8.58,8.58,0,0,0,323.69,80.13Z" transform="translate(-26.67 -17.54)"/><path d="M370.14,87.53V26.77h10.1v24a19.91,19.91,0,0,1,5.64-4.23,16.26,16.26,0,0,1,7.36-1.57,13.61,13.61,0,0,1,11.18,5.52,19.69,19.69,0,0,1,3.19,6.66,33.53,33.53,0,0,1,1.12,9.12,28.76,28.76,0,0,1-1.27,8.71,21.31,21.31,0,0,1-3.62,7,16.73,16.73,0,0,1-5.68,4.6,16.54,16.54,0,0,1-7.46,1.66,14.84,14.84,0,0,1-3.52-.39A12.07,12.07,0,0,1,381.86,85a20.8,20.8,0,0,1-2.15-2.23l-.45,2.82a2.54,2.54,0,0,1-.84,1.51,2.61,2.61,0,0,1-1.62.45Zm19.63-34.76a10.32,10.32,0,0,0-5.38,1.33,15.55,15.55,0,0,0-4.15,3.74V76.65a9.61,9.61,0,0,0,3.74,3,11.36,11.36,0,0,0,4.4.84,9.65,9.65,0,0,0,4.13-.86A8.09,8.09,0,0,0,395.64,77a13,13,0,0,0,2-4.44,25.37,25.37,0,0,0,.69-6.32,28.09,28.09,0,0,0-.59-6.24,12.06,12.06,0,0,0-1.7-4.15,6.71,6.71,0,0,0-2.68-2.33A8.36,8.36,0,0,0,389.77,52.77Z" transform="translate(-26.67 -17.54)"/><path d="M430.17,99.06a3.91,3.91,0,0,1-1.17,1.62,3.56,3.56,0,0,1-2.19.55h-7.52l7.85-16.81-17-38.85H419a2.78,2.78,0,0,1,1.88.57,3.78,3.78,0,0,1,1,1.31l9,21.75a19.31,19.31,0,0,1,.78,2.21q.33,1.15.57,2.29.33-1.19.72-2.29t.84-2.25l8.42-21.71a3,3,0,0,1,1.08-1.35,2.89,2.89,0,0,1,1.7-.53H453Z" transform="translate(-26.67 -17.54)"/></g></g></svg>