<svg width="21" height="21" viewBox="0 0 21 21" fill="none" xmlns="http://www.w3.org/2000/svg">
<path d="M13.5272 9.74603L13.0892 9.32519L10.9389 7.25741C10.7232 7.04961 10.3738 7.04961 10.1582 7.25741L8.01321 9.32004L7.57278 9.74367C6.87433 10.4207 6.87715 11.5157 7.57908 12.1893C8.17174 12.7581 9.09328 12.8564 9.80037 12.4261L9.55674 13.6942C9.5134 13.9186 9.66689 14.1344 9.89954 14.1762C9.92549 14.1808 9.95186 14.1832 9.97825 14.1832H11.1212C11.3579 14.1833 11.5498 13.9984 11.55 13.7701C11.55 13.7446 11.5476 13.7192 11.5427 13.6942L11.2962 12.419C12.0053 12.8523 12.931 12.7544 13.5259 12.1832C14.224 11.5132 14.2268 10.4243 13.5322 9.75096C13.5306 9.74932 13.5289 9.74768 13.5272 9.74603Z" fill="white"/>
<path d="M3.36544 10.407C3.42385 8.73282 4.11081 7.13611 5.29848 5.91398L5.29477 5.91079L3.26108 3.94922C1.53471 5.69325 0.545839 7.9963 0.488281 10.407H3.36422H3.36544Z" fill="white"/>
<path d="M5.64596 5.57712C6.91295 4.43167 8.56816 3.76907 10.3037 3.71264C10.3035 3.71119 10.3035 3.70972 10.3037 3.70827V0.9375C7.80473 0.993017 5.41736 1.94669 3.60938 3.61158L5.64266 5.57354L5.64596 5.57712Z" fill="#CF8D2E"/>
<path d="M15.455 15.7109C14.188 16.8567 12.5326 17.5194 10.7969 17.5758C10.7971 17.5773 10.7971 17.5787 10.7969 17.5802V20.351C13.2968 20.296 15.6852 19.3422 17.4937 17.6765L15.46 15.7145L15.455 15.7109Z" fill="#CF8D2E"/>
<path d="M10.3045 17.5758C8.56864 17.5195 6.91305 16.8568 5.64592 15.7109L5.64303 15.7145L3.60938 17.6765C5.41783 19.3422 7.80626 20.296 10.3062 20.351V17.5802C10.3054 17.5788 10.3048 17.5774 10.3045 17.5758Z" fill="white"/>
<path d="M5.29725 15.3754C4.10969 14.1533 3.42273 12.5568 3.36422 10.8828H0.488281C0.544921 13.2939 1.53338 15.5976 3.25985 17.3421L5.29354 15.3802C5.29436 15.3783 5.29565 15.3767 5.29725 15.3754Z" fill="#CF8D2E"/>
<path d="M17.7338 10.8828C17.6754 12.557 16.9884 14.1537 15.8008 15.3758C15.8022 15.3765 15.8034 15.3774 15.8045 15.3786L17.8382 17.3421C19.5651 15.5978 20.554 13.2941 20.611 10.8828H17.735H17.7338Z" fill="white"/>
<path d="M15.8008 5.91398C16.9883 7.13604 17.6753 8.73255 17.7338 10.4066H20.6098C20.5524 7.9962 19.564 5.69332 17.8382 3.94922L15.8045 5.91079L15.8008 5.91398Z" fill="#CF8D2E"/>
<path d="M10.7969 3.71264C12.5326 3.76897 14.188 4.43157 15.455 5.57712L15.4583 5.57354L17.4916 3.61158C15.6835 1.94659 13.296 0.992919 10.7969 0.9375V3.70827C10.7971 3.70972 10.7971 3.71119 10.7969 3.71264Z" fill="white"/>
</svg>
