<svg width="13" height="13" viewBox="0 0 13 13" fill="none" xmlns="http://www.w3.org/2000/svg">
<path d="M3.50424 0.589241C3.62141 0.706446 3.68723 0.865389 3.68723 1.03112C3.68723 1.19684 3.62141 1.35579 3.50424 1.47299L2.38362 2.59362H7.28112C8.27002 2.59362 9.23672 2.88686 10.059 3.43627C10.8812 3.98568 11.5221 4.76657 11.9005 5.6802C12.279 6.59383 12.378 7.59916 12.185 8.56907C11.9921 9.53897 11.5159 10.4299 10.8167 11.1292C10.1174 11.8284 9.22647 12.3046 8.25657 12.4975C7.28666 12.6905 6.28133 12.5915 5.3677 12.213C4.45407 11.8346 3.67318 11.1937 3.12377 10.3715C2.57436 9.54922 2.28112 8.58252 2.28112 7.59362C2.28112 7.42786 2.34696 7.26889 2.46417 7.15167C2.58139 7.03446 2.74036 6.96862 2.90612 6.96862C3.07188 6.96862 3.23085 7.03446 3.34806 7.15167C3.46527 7.26889 3.53112 7.42786 3.53112 7.59362C3.53112 8.3353 3.75105 9.06032 4.16311 9.677C4.57516 10.2937 5.16083 10.7743 5.84605 11.0582C6.53128 11.342 7.28528 11.4163 8.0127 11.2716C8.74013 11.1269 9.40832 10.7697 9.93277 10.2453C10.4572 9.72082 10.8144 9.05263 10.9591 8.3252C11.1038 7.59778 11.0295 6.84378 10.7457 6.15855C10.4618 5.47333 9.98119 4.88766 9.3645 4.47561C8.74782 4.06355 8.0228 3.84362 7.28112 3.84362H2.38362L3.50424 4.96424C3.61809 5.08212 3.68109 5.23999 3.67966 5.40387C3.67824 5.56774 3.61251 5.7245 3.49663 5.84038C3.38075 5.95626 3.22399 6.02199 3.06012 6.02341C2.89624 6.02484 2.73837 5.96184 2.62049 5.84799L0.432991 3.66049C0.315822 3.54329 0.25 3.38434 0.25 3.21862C0.25 3.05289 0.315822 2.89395 0.432991 2.77674L2.62049 0.589241C2.7377 0.472072 2.89664 0.40625 3.06237 0.40625C3.22809 0.40625 3.38704 0.472072 3.50424 0.589241Z" fill="#CF8D2E"/>
</svg>
